0
SECTION
2
HEADER
9
$INSUNITS
70
4
9
$ACADVER
1
AC1014
9
$HANDSEED
5
FFFF
0
ENDSEC
0
SECTION
2
TABLES
0
TABLE
2
VPORT
5
8
100
AcDbSymbolTable
0
ENDTAB
0
TABLE
2
LTYPE
5
5
100
AcDbSymbolTable
0
LTYPE
5
14
100
AcDbSymbolTableRecord
100
AcDbLinetypeTableRecord
2
BYBLOCK
70
0
0
LTYPE
5
15
100
AcDbSymbolTableRecord
100
AcDbLinetypeTableRecord
2
BYLAYER
70
0
0
ENDTAB
0
TABLE
2
LAYER
5
2
100
AcDbSymbolTable
70
2
0
LAYER
5
50
100
AcDbSymbolTableRecord
100
AcDbLayerTableRecord
2
0
70
0
6
CONTINUOUS
0
ENDTAB
0
TABLE
2
STYLE
5
3
100
AcDbSymbolTable
70
1
0
STYLE
5
11
100
AcDbSymbolTableRecord
100
AcDbTextStyleTableRecord
2
STANDARD
70
0
0
ENDTAB
0
TABLE
2
VIEW
5
6
100
AcDbSymbolTable
70
0
0
ENDTAB
0
TABLE
2
UCS
5
7
100
AcDbSymbolTable
70
0
0
ENDTAB
0
TABLE
2
APPID
5
9
100
AcDbSymbolTable
70
2
0
APPID
5
12
100
AcDbSymbolTableRecord
100
AcDbRegAppTableRecord
2
ACAD
70
0
0
ENDTAB
0
TABLE
2
DIMSTYLE
5
A
100
AcDbSymbolTable
70
1
0
ENDTAB
0
TABLE
2
BLOCK_RECORD
5
1
100
AcDbSymbolTable
70
1
0
BLOCK_RECORD
5
1F
100
AcDbSymbolTableRecord
100
AcDbBlockTableRecord
2
*MODEL_SPACE
0
BLOCK_RECORD
5
1B
100
AcDbSymbolTableRecord
100
AcDbBlockTableRecord
2
*PAPER_SPACE
0
ENDTAB
0
ENDSEC
0
SECTION
2
BLOCKS
0
BLOCK
5
20
100
AcDbEntity
100
AcDbBlockBegin
2
*MODEL_SPACE
0
ENDBLK
5
21
100
AcDbEntity
100
AcDbBlockEnd
0
BLOCK
5
1C
100
AcDbEntity
100
AcDbBlockBegin
2
*PAPER_SPACE
0
ENDBLK
5
1D
100
AcDbEntity
100
AcDbBlockEnd
0
ENDSEC
0
SECTION
2
ENTITIES
0
LWPOLYLINE
5
100
100
AcDbEntity
8
0
100
AcDbPolyline
90
14
70
1
43
0.0
10
-2.4142135623730967
20
16
42
-0.19891236737966031
10
-1.7071067811865475
20
15.707106781186546
10
1.207106781186547
20
12.792893218813452
42
-0.19891236737965812
10
1.5000000000000002
20
12.085786437626904
10
1.5000000000000004
20
1.0000000000000011
42
-0.41421356237309515
10
0.50000000000000044
20
0
10
-14.985786437626903
20
-2.9837243786801082e-15
42
-0.19891236737965859
10
-15.692893218813451
20
0.29289321881345087
10
-17.107106781186548
20
1.7071067811865466
42
-0.19891236737965662
10
-17.399999999999999
20
2.4142135623730931
10
-17.399999999999999
20
13.685786437626907
42
-0.19891236737965706
10
-17.107106781186548
20
14.392893218813454
10
-15.792893218813449
20
15.707106781186548
42
-0.19891236737965604
10
-15.085786437626902
20
16
0
CIRCLE
5
101
100
AcDbEntity
8
0
100
AcDbCircle
10
-0.5000000074505806
20
2.0000000298023224
30
0
40
0.99999999999999978
210
0
220
0
230
1
0
CIRCLE
5
102
100
AcDbEntity
8
0
100
AcDbCircle
10
-13.000000193715096
20
2.0000000298023224
30
0
40
0.99999999999999989
210
0
220
0
230
1
0
CIRCLE
5
103
100
AcDbEntity
8
0
100
AcDbCircle
10
-13.000000193715096
20
14.000000208616257
30
0
40
1.0000000000000009
210
0
220
0
230
1
0
LWPOLYLINE
5
104
100
AcDbEntity
8
0
100
AcDbPolyline
90
4
70
1
43
0.0
10
-3.4900888965332588
20
6.585088896533339
10
-2.7900888965332586
20
6.5850888965333487
10
-2.790088896533256
20
6.3850888965333494
10
-3.4900888965332562
20
6.3850888965333397
0
LWPOLYLINE
5
105
100
AcDbEntity
8
0
100
AcDbPolyline
90
4
70
1
43
0.0
10
-3.4900888965332726
20
7.5850888965333398
10
-2.7900888965332724
20
7.5850888965333496
10
-2.7900888965332693
20
7.3850888965333494
10
-3.4900888965332699
20
7.3850888965333397
0
LWPOLYLINE
5
106
100
AcDbEntity
8
0
100
AcDbPolyline
90
4
70
1
43
0.0
10
-3.4900888965332868
20
8.585088896533339
10
-2.7900888965332866
20
8.5850888965333496
10
-2.7900888965332831
20
8.3850888965333485
10
-3.4900888965332837
20
8.3850888965333397
0
LWPOLYLINE
5
107
100
AcDbEntity
8
0
100
AcDbPolyline
90
4
70
1
43
0.0
10
-3.4900888965333001
20
9.5850888965333407
10
-2.7900888965332999
20
9.5850888965333496
10
-2.7900888965332973
20
9.3850888965333503
10
-3.490088896533297
20
9.3850888965333397
0
LWPOLYLINE
5
108
100
AcDbEntity
8
0
100
AcDbPolyline
90
4
70
1
43
0.0
10
-12.509911103466679
20
9.3850888965333539
10
-13.209911103466681
20
9.3850888965333485
10
-13.209911103466682
20
9.5850888965333496
10
-12.509911103466681
20
9.5850888965333549
0
LWPOLYLINE
5
109
100
AcDbEntity
8
0
100
AcDbPolyline
90
4
70
1
43
0.0
10
-12.509911103466674
20
8.3850888965333539
10
-13.209911103466673
20
8.3850888965333485
10
-13.209911103466673
20
8.5850888965333478
10
-12.509911103466676
20
8.5850888965333532
0
LWPOLYLINE
5
110
100
AcDbEntity
8
0
100
AcDbPolyline
90
4
70
1
43
0.0
10
-12.509911103466663
20
7.3850888965333539
10
-13.209911103466665
20
7.3850888965333485
10
-13.209911103466666
20
7.5850888965333478
10
-12.509911103466667
20
7.5850888965333532
0
LWPOLYLINE
5
111
100
AcDbEntity
8
0
100
AcDbPolyline
90
4
70
1
43
0.0
10
-12.509911103466658
20
6.3850888965333521
10
-13.209911103466659
20
6.3850888965333477
10
-13.209911103466661
20
6.5850888965333478
10
-12.50991110346666
20
6.5850888965333532
0
LWPOLYLINE
5
112
100
AcDbEntity
8
0
100
AcDbPolyline
90
4
70
1
43
0.0
10
-6.349999999999989
20
3.3250000000000539
10
-6.349999999999989
20
3.1750000000000544
10
-6.5499999999999892
20
3.1750000000000549
10
-6.5499999999999892
20
3.3250000000000544
0
LWPOLYLINE
5
113
100
AcDbEntity
8
0
100
AcDbPolyline
90
4
70
1
43
0.0
10
-6.349999999999989
20
2.8250000000000552
10
-6.349999999999989
20
2.6750000000000558
10
-6.5499999999999892
20
2.6750000000000558
10
-6.5499999999999892
20
2.8250000000000552
0
LWPOLYLINE
5
114
100
AcDbEntity
8
0
100
AcDbPolyline
90
4
70
1
43
0.0
10
-6.349999999999989
20
2.3250000000000561
10
-6.349999999999989
20
2.1750000000000562
10
-6.5499999999999892
20
2.1750000000000562
10
-6.5499999999999892
20
2.3250000000000561
0
LWPOLYLINE
5
115
100
AcDbEntity
8
0
100
AcDbPolyline
90
4
70
1
43
0.0
10
-6.349999999999989
20
1.825000000000057
10
-6.349999999999989
20
1.6750000000000573
10
-6.5499999999999892
20
1.6750000000000576
10
-6.5499999999999892
20
1.825000000000057
0
LWPOLYLINE
5
116
100
AcDbEntity
8
0
100
AcDbPolyline
90
4
70
1
43
0.0
10
-6.3499999999999988
20
14.575000000000003
10
-6.3499999999999988
20
14.425000000000004
10
-6.5499999999999989
20
14.425000000000004
10
-6.5499999999999989
20
14.575000000000003
0
LWPOLYLINE
5
117
100
AcDbEntity
8
0
100
AcDbPolyline
90
4
70
1
43
0.0
10
-6.3499999999999988
20
14.075000000000003
10
-6.3499999999999988
20
13.925000000000001
10
-6.5499999999999989
20
13.925000000000001
10
-6.5499999999999989
20
14.075000000000003
0
LWPOLYLINE
5
118
100
AcDbEntity
8
0
100
AcDbPolyline
90
4
70
1
43
0.0
10
-6.3499999999999988
20
13.575000000000001
10
-6.3499999999999988
20
13.425000000000001
10
-6.5499999999999989
20
13.425000000000001
10
-6.5499999999999989
20
13.575000000000001
0
LWPOLYLINE
5
119
100
AcDbEntity
8
0
100
AcDbPolyline
90
4
70
1
43
0.0
10
-6.3499999999999988
20
13.075000000000001
10
-6.3499999999999988
20
12.925000000000001
10
-6.5499999999999989
20
12.925000000000001
10
-6.5499999999999989
20
13.075000000000001
0
LWPOLYLINE
5
120
100
AcDbEntity
8
0
100
AcDbPolyline
90
4
70
1
43
0.0
10
-6.3499999999999988
20
12.574999999999999
10
-6.3499999999999988
20
12.424999999999999
10
-6.5499999999999989
20
12.425000000000001
10
-6.5499999999999989
20
12.575000000000001
0
LINE
5
121
100
AcDbEntity
8
0
100
AcDbLine
10
-2.999999999999992
20
12
30
0
11
-2.999999999999992
21
15.000000000000004
31
0
0
LINE
5
122
100
AcDbEntity
8
0
100
AcDbLine
10
-2.9999999999999827
20
1.2500000000000582
30
0
11
-2.9999999999999827
21
3.7500000000000533
31
0
0
ENDSEC
0
SECTION
2
OBJECTS
0
DICTIONARY
5
C
100
AcDbDictionary
3
ACAD_GROUP
350
D
3
ACAD_MLINESTYLE
350
17
0
DICTIONARY
5
D
100
AcDbDictionary
0
DICTIONARY
5
1A
330
C
100
AcDbDictionary
0
DICTIONARY
5
17
100
AcDbDictionary
0
ENDSEC
0
EOF
