G04*
G04 #@! TF.GenerationSoftware,Altium Limited,Altium Designer,20.1.14 (287)*
G04*
G04 Layer_Color=255*
%FSLAX44Y44*%
%MOMM*%
G71*
G04*
G04 #@! TF.SameCoordinates,D1A4AC06-9C69-4D29-80E8-20607C734ED5*
G04*
G04*
G04 #@! TF.FilePolarity,Positive*
G04*
G01*
G75*
%ADD19R,0.2800X0.3000*%
%ADD20R,1.5494X0.9906*%
%ADD21R,0.7000X0.7000*%
%ADD22R,1.1500X0.7000*%
%ADD23R,0.7000X1.1500*%
%ADD24R,0.3000X0.2800*%
%ADD25R,0.5500X0.5500*%
%ADD26R,0.4000X1.1900*%
%ADD27C,1.0000*%
%ADD28R,0.9000X1.0000*%
%ADD29R,0.9000X1.2000*%
%ADD30R,0.5500X0.3500*%
%ADD31R,0.3500X0.5500*%
%ADD32R,1.2200X0.9100*%
%ADD33R,0.9100X1.2200*%
%ADD34R,1.3000X3.4000*%
%ADD35C,0.2500*%
%ADD36R,2.8000X1.8000*%
%ADD37R,1.8000X3.0000*%
%ADD38R,3.0000X3.0000*%
%ADD39R,2.0000X2.1800*%
%ADD40R,1.1500X0.3000*%
%ADD41R,1.1500X0.6000*%
%ADD42R,0.2800X0.8500*%
%ADD43R,0.2800X0.7500*%
%ADD44R,0.7620X2.3876*%
%ADD45R,1.1176X2.4384*%
%ADD76R,1.0000X1.0000*%
%ADD77C,1.4000*%
%ADD78C,0.6500*%
%ADD79R,1.5500X1.5500*%
%ADD80C,1.5500*%
D19*
X375568Y519847D02*
D03*
X370868D02*
D03*
X621093Y396014D02*
D03*
X616393D02*
D03*
X383800Y396465D02*
D03*
X379100D02*
D03*
X383869Y403658D02*
D03*
X379169D02*
D03*
X390951Y689882D02*
D03*
X386251D02*
D03*
X390981Y696074D02*
D03*
X386282D02*
D03*
X377380Y490474D02*
D03*
X382080D02*
D03*
X633734Y538760D02*
D03*
X638434D02*
D03*
X615378Y596646D02*
D03*
X620078D02*
D03*
X602932Y589026D02*
D03*
X607632D02*
D03*
X633666Y544576D02*
D03*
X638366D02*
D03*
X733108Y410718D02*
D03*
X728408D02*
D03*
X700850Y390398D02*
D03*
X696150D02*
D03*
X389318Y413258D02*
D03*
X394018D02*
D03*
X389318Y421640D02*
D03*
X394018D02*
D03*
X615442Y589026D02*
D03*
X620142D02*
D03*
X407480Y703326D02*
D03*
X402780D02*
D03*
X402526Y722630D02*
D03*
X407226D02*
D03*
D20*
X533180Y656726D02*
D03*
Y688726D02*
D03*
X480680D02*
D03*
Y656726D02*
D03*
D21*
X668960Y686286D02*
D03*
Y674786D02*
D03*
Y663286D02*
D03*
Y651786D02*
D03*
X657460Y674786D02*
D03*
Y663286D02*
D03*
X645960Y686286D02*
D03*
Y674786D02*
D03*
Y663286D02*
D03*
Y651786D02*
D03*
X634460Y674786D02*
D03*
Y663286D02*
D03*
X595210Y629036D02*
D03*
Y639036D02*
D03*
Y649036D02*
D03*
Y659036D02*
D03*
Y669036D02*
D03*
Y679036D02*
D03*
Y689036D02*
D03*
Y699036D02*
D03*
Y709036D02*
D03*
X621210Y652536D02*
D03*
Y663536D02*
D03*
Y674536D02*
D03*
Y685536D02*
D03*
Y696536D02*
D03*
X632210D02*
D03*
X643210D02*
D03*
X654210D02*
D03*
X665210D02*
D03*
X676210D02*
D03*
Y641536D02*
D03*
X665210D02*
D03*
X654210D02*
D03*
X643210D02*
D03*
X632210D02*
D03*
X621210D02*
D03*
D22*
X607460Y649036D02*
D03*
Y659036D02*
D03*
Y669036D02*
D03*
Y679036D02*
D03*
Y689036D02*
D03*
X695960D02*
D03*
Y679036D02*
D03*
Y659036D02*
D03*
Y649036D02*
D03*
Y669036D02*
D03*
D23*
X606710Y710286D02*
D03*
X616710D02*
D03*
X626710D02*
D03*
X636710D02*
D03*
X646710D02*
D03*
X656710D02*
D03*
X666710D02*
D03*
X676710D02*
D03*
X686710D02*
D03*
X696710D02*
D03*
Y627786D02*
D03*
X686710D02*
D03*
X676710D02*
D03*
X666710D02*
D03*
X656710D02*
D03*
X646710D02*
D03*
X636710D02*
D03*
X626710D02*
D03*
X616710D02*
D03*
X606710D02*
D03*
D24*
X406908Y530288D02*
D03*
Y534988D02*
D03*
X387350Y557848D02*
D03*
Y553148D02*
D03*
X637540Y579692D02*
D03*
Y574992D02*
D03*
X554228Y683958D02*
D03*
Y688658D02*
D03*
X717550Y360362D02*
D03*
Y365062D02*
D03*
X710946Y360108D02*
D03*
Y364808D02*
D03*
X620522Y438276D02*
D03*
Y442976D02*
D03*
X613918Y438340D02*
D03*
Y443040D02*
D03*
D25*
X373634Y531876D02*
D03*
Y543560D02*
D03*
X397256Y301752D02*
D03*
Y313436D02*
D03*
X413512Y301752D02*
D03*
Y313436D02*
D03*
D26*
X628546Y557074D02*
D03*
X615546D02*
D03*
Y576274D02*
D03*
X622046D02*
D03*
X628546D02*
D03*
D27*
X567690Y678942D02*
D03*
X567436Y696976D02*
D03*
X704596Y449580D02*
D03*
D28*
X712980Y324104D02*
D03*
D29*
X717480Y309104D02*
D03*
Y339104D02*
D03*
D30*
X730864Y383898D02*
D03*
Y390398D02*
D03*
Y396898D02*
D03*
X712364D02*
D03*
Y390398D02*
D03*
Y383898D02*
D03*
D31*
X646834Y449686D02*
D03*
X640334D02*
D03*
X633834D02*
D03*
Y431186D02*
D03*
X640334D02*
D03*
X646834D02*
D03*
D32*
X681736Y426880D02*
D03*
Y459580D02*
D03*
D33*
X667860Y395986D02*
D03*
X635160D02*
D03*
D34*
X691454Y332232D02*
D03*
X604454D02*
D03*
D35*
X367030Y417894D02*
D03*
X363030D02*
D03*
X367030Y421894D02*
D03*
X363030D02*
D03*
X376142Y706088D02*
D03*
Y702088D02*
D03*
X372142Y706088D02*
D03*
Y702088D02*
D03*
D36*
X372032Y363220D02*
D03*
Y653034D02*
D03*
D37*
X342032Y405220D02*
D03*
Y321220D02*
D03*
Y695034D02*
D03*
Y611034D02*
D03*
D38*
X302032Y410220D02*
D03*
Y316220D02*
D03*
Y700034D02*
D03*
Y606034D02*
D03*
D39*
X300980Y456646D02*
D03*
Y558846D02*
D03*
X340280Y456646D02*
D03*
Y558846D02*
D03*
D40*
X346030Y505246D02*
D03*
Y510246D02*
D03*
Y500246D02*
D03*
Y515246D02*
D03*
Y495246D02*
D03*
Y520246D02*
D03*
Y490246D02*
D03*
Y525246D02*
D03*
D41*
Y475746D02*
D03*
Y483746D02*
D03*
Y531746D02*
D03*
Y539746D02*
D03*
D42*
X396066Y546946D02*
D03*
D43*
X401066Y546446D02*
D03*
X406066D02*
D03*
X396066Y557946D02*
D03*
X401066D02*
D03*
X406066D02*
D03*
D44*
X703326Y598366D02*
D03*
Y559366D02*
D03*
X690626Y598366D02*
D03*
Y559366D02*
D03*
X677926Y598366D02*
D03*
Y559366D02*
D03*
X665226Y598366D02*
D03*
Y559366D02*
D03*
X652526Y598366D02*
D03*
Y559366D02*
D03*
D45*
X558546Y295021D02*
D03*
X533146D02*
D03*
X507746D02*
D03*
X482346D02*
D03*
X456946D02*
D03*
Y381127D02*
D03*
X482346D02*
D03*
X507746D02*
D03*
X533146D02*
D03*
X558546D02*
D03*
D76*
X704596Y436880D02*
D03*
D77*
X342032Y363220D02*
D03*
X297032D02*
D03*
X342032Y653034D02*
D03*
X297032D02*
D03*
D78*
X335280Y478846D02*
D03*
Y536646D02*
D03*
D79*
X605282Y520954D02*
D03*
D80*
Y495554D02*
D03*
M02*
