G04*
G04 #@! TF.GenerationSoftware,Altium Limited,Altium Designer,20.1.14 (287)*
G04*
G04 Layer_Physical_Order=2*
G04 Layer_Color=16711680*
%FSLAX44Y44*%
%MOMM*%
G71*
G04*
G04 #@! TF.SameCoordinates,D1A4AC06-9C69-4D29-80E8-20607C734ED5*
G04*
G04*
G04 #@! TF.FilePolarity,Positive*
G04*
G01*
G75*
%ADD17C,0.2540*%
%ADD27C,1.0000*%
%ADD75C,0.3810*%
%ADD76R,1.0000X1.0000*%
%ADD77C,1.4000*%
%ADD78C,0.6500*%
%ADD79R,1.5500X1.5500*%
%ADD80C,1.5500*%
%ADD81C,0.4500*%
G36*
X686308Y723827D02*
X685542Y723674D01*
X684461Y722953D01*
X683739Y721872D01*
X683486Y720598D01*
X683739Y719324D01*
X684461Y718243D01*
X685542Y717522D01*
X686308Y717369D01*
Y441446D01*
X581711Y336849D01*
X429717D01*
X371139Y395427D01*
Y408855D01*
X371163Y408871D01*
X371884Y409952D01*
X372138Y411226D01*
X371884Y412500D01*
X371163Y413581D01*
X370082Y414302D01*
X368808Y414556D01*
X367534Y414302D01*
X366567Y413656D01*
X366023Y413787D01*
X365297Y414136D01*
Y426381D01*
X365321Y426397D01*
X366043Y427478D01*
X366296Y428752D01*
X366290Y428780D01*
X367219Y429709D01*
X375223D01*
X379818Y425114D01*
Y415087D01*
X379448Y414532D01*
X379194Y413258D01*
X379448Y411984D01*
X380169Y410903D01*
X381250Y410182D01*
X382524Y409928D01*
X383798Y410182D01*
X384879Y410903D01*
X385601Y411984D01*
X385854Y413258D01*
X385601Y414532D01*
X384879Y415613D01*
X384480Y415879D01*
Y426079D01*
X384302Y426971D01*
X383797Y427727D01*
X377836Y433688D01*
X377080Y434193D01*
X376188Y434371D01*
X366254D01*
X365362Y434193D01*
X364606Y433688D01*
X362994Y432076D01*
X362966Y432082D01*
X361692Y431828D01*
X360611Y431107D01*
X359889Y430026D01*
X359636Y428752D01*
X359889Y427478D01*
X360611Y426397D01*
X360635Y426381D01*
Y390652D01*
X360813Y389760D01*
X361318Y389004D01*
X424456Y325865D01*
X425213Y325360D01*
X426105Y325183D01*
X589681D01*
X590573Y325360D01*
X591329Y325865D01*
X685135Y419671D01*
X686308Y419185D01*
Y327361D01*
X666924Y307848D01*
X590914D01*
X590503Y307930D01*
X590091Y307848D01*
X348586D01*
X337296Y319138D01*
X336804D01*
Y355692D01*
X337943Y356254D01*
X337989Y356218D01*
X339939Y355410D01*
X342032Y355135D01*
X344125Y355410D01*
X346075Y356218D01*
X347749Y357503D01*
X349034Y359177D01*
X349842Y361127D01*
X350117Y363220D01*
X349842Y365313D01*
X349034Y367263D01*
X347749Y368937D01*
X346075Y370222D01*
X344125Y371030D01*
X342032Y371305D01*
X339939Y371030D01*
X337989Y370222D01*
X337943Y370186D01*
X336804Y370748D01*
Y474800D01*
X336945Y474827D01*
X338356Y475770D01*
X339299Y477182D01*
X339630Y478846D01*
X339299Y480510D01*
X338356Y481922D01*
X336945Y482864D01*
X336804Y482892D01*
Y497921D01*
X337086Y498344D01*
X337167Y498750D01*
X338632Y500215D01*
X339278Y501181D01*
X339505Y502321D01*
Y508829D01*
X339627Y509012D01*
X339880Y510286D01*
X339627Y511560D01*
X338905Y512641D01*
X337824Y513363D01*
X336804Y513565D01*
Y518680D01*
X421950D01*
X422842Y518857D01*
X423599Y519362D01*
X426067Y521831D01*
X427141Y522044D01*
X428222Y522766D01*
X428944Y523847D01*
X429197Y525121D01*
X428944Y526395D01*
X428222Y527476D01*
X427141Y528197D01*
X425867Y528451D01*
X424593Y528197D01*
X423512Y527476D01*
X422791Y526395D01*
X422537Y525121D01*
X422575Y524931D01*
X420985Y523341D01*
X336804D01*
Y532600D01*
X336945Y532627D01*
X338356Y533570D01*
X339299Y534981D01*
X339630Y536646D01*
X339299Y538311D01*
X338356Y539722D01*
X336945Y540664D01*
X336804Y540692D01*
Y645506D01*
X337943Y646068D01*
X337989Y646032D01*
X339939Y645224D01*
X342032Y644949D01*
X344125Y645224D01*
X346075Y646032D01*
X347749Y647317D01*
X349034Y648991D01*
X349842Y650941D01*
X350117Y653034D01*
X349842Y655127D01*
X349034Y657077D01*
X347749Y658751D01*
X346075Y660036D01*
X344125Y660844D01*
X342032Y661119D01*
X339939Y660844D01*
X337989Y660036D01*
X337943Y660000D01*
X336804Y660562D01*
Y740410D01*
X583410D01*
Y735500D01*
X583435Y735374D01*
X583423Y735246D01*
X583471Y734759D01*
X583581Y734395D01*
X583656Y734021D01*
X584029Y733120D01*
X584590Y732280D01*
X584590Y732280D01*
X585280Y731590D01*
X586120Y731029D01*
X587021Y730656D01*
X587394Y730581D01*
X587758Y730471D01*
X588246Y730423D01*
X588374Y730435D01*
X588500Y730410D01*
X621864D01*
X622249Y729140D01*
X622137Y729066D01*
X616740Y723668D01*
X616712Y723674D01*
X615438Y723420D01*
X614357Y722699D01*
X613635Y721618D01*
X613382Y720344D01*
X613635Y719070D01*
X614357Y717989D01*
X615438Y717268D01*
X616712Y717014D01*
X617986Y717268D01*
X619067Y717989D01*
X619789Y719070D01*
X620042Y720344D01*
X620036Y720372D01*
X624751Y725087D01*
X655529D01*
X655673Y725013D01*
X655794Y724810D01*
X655316Y723420D01*
X654235Y722699D01*
X653513Y721618D01*
X653260Y720344D01*
X653266Y720316D01*
X643681Y710731D01*
X642999Y710859D01*
X642411Y711200D01*
Y712775D01*
X646656Y717020D01*
X646684Y717014D01*
X647958Y717268D01*
X649039Y717989D01*
X649761Y719070D01*
X650014Y720344D01*
X649761Y721618D01*
X649039Y722699D01*
X647958Y723420D01*
X646684Y723674D01*
X645410Y723420D01*
X644329Y722699D01*
X643607Y721618D01*
X643354Y720344D01*
X643360Y720316D01*
X638432Y715388D01*
X638349Y715264D01*
X637219Y715606D01*
X637090Y716829D01*
X637398Y717137D01*
X638052Y717268D01*
X639133Y717989D01*
X639855Y719070D01*
X640108Y720344D01*
X639855Y721618D01*
X639133Y722699D01*
X638052Y723420D01*
X636778Y723674D01*
X635504Y723420D01*
X634423Y722699D01*
X633702Y721618D01*
X633448Y720344D01*
X633542Y719874D01*
X633100Y719432D01*
X632595Y718676D01*
X632417Y717784D01*
Y682496D01*
X624574Y674653D01*
X624377Y674358D01*
X623107Y674743D01*
Y713537D01*
X626590Y717020D01*
X626618Y717014D01*
X627892Y717268D01*
X628973Y717989D01*
X629695Y719070D01*
X629948Y720344D01*
X629695Y721618D01*
X628973Y722699D01*
X627892Y723420D01*
X626618Y723674D01*
X625344Y723420D01*
X624263Y722699D01*
X623541Y721618D01*
X623288Y720344D01*
X623294Y720316D01*
X619128Y716150D01*
X618623Y715394D01*
X618445Y714502D01*
Y701558D01*
X617189Y701524D01*
X617012Y702416D01*
X616507Y703172D01*
X609137Y710542D01*
Y717973D01*
X609161Y717989D01*
X609883Y719070D01*
X610136Y720344D01*
X609883Y721618D01*
X609161Y722699D01*
X608080Y723420D01*
X606806Y723674D01*
X605532Y723420D01*
X604451Y722699D01*
X603730Y721618D01*
X603476Y720344D01*
X603730Y719070D01*
X604451Y717989D01*
X604475Y717973D01*
Y709576D01*
X604653Y708684D01*
X605158Y707928D01*
X612528Y700558D01*
Y613577D01*
X594708Y595757D01*
X557763D01*
X556871Y595580D01*
X556115Y595075D01*
X499299Y538259D01*
X498794Y537503D01*
X498616Y536611D01*
Y494651D01*
X498794Y493759D01*
X499299Y493003D01*
X521911Y470391D01*
X521869Y470180D01*
X522123Y468906D01*
X522845Y467826D01*
X523925Y467104D01*
X525199Y466850D01*
X526473Y467104D01*
X527554Y467826D01*
X528276Y468906D01*
X528529Y470180D01*
X528276Y471455D01*
X527554Y472535D01*
X526473Y473257D01*
X525430Y473464D01*
X503278Y495616D01*
Y535645D01*
X558728Y591096D01*
X595673D01*
X596565Y591273D01*
X597322Y591778D01*
X616507Y610963D01*
X617012Y611719D01*
X617189Y612611D01*
X618445Y612578D01*
Y600710D01*
X618623Y599818D01*
X619128Y599062D01*
X625438Y592752D01*
X625643Y591721D01*
X626365Y590641D01*
X627445Y589919D01*
X628719Y589666D01*
X629993Y589919D01*
X631074Y590641D01*
X631653Y591508D01*
X632633Y591406D01*
X632923Y591297D01*
Y574243D01*
X619303Y560623D01*
X557276D01*
X556384Y560445D01*
X555628Y559940D01*
X524030Y528342D01*
X524002Y528348D01*
X522728Y528094D01*
X521647Y527373D01*
X520925Y526292D01*
X520672Y525018D01*
X520925Y523744D01*
X521647Y522663D01*
X521732Y522607D01*
Y521079D01*
X521647Y521023D01*
X520925Y519942D01*
X520672Y518668D01*
X520925Y517394D01*
X521647Y516313D01*
X521614Y514809D01*
X521564Y514775D01*
X520842Y513695D01*
X520588Y512421D01*
X520842Y511146D01*
X521564Y510066D01*
X522644Y509344D01*
X523918Y509091D01*
X525193Y509344D01*
X526155Y509987D01*
X534162D01*
X535054Y510165D01*
X535810Y510670D01*
X570687Y545547D01*
X575893D01*
X576278Y544277D01*
X576151Y544192D01*
X536114Y504155D01*
X536086Y504161D01*
X534812Y503907D01*
X533731Y503186D01*
X533009Y502105D01*
X532756Y500831D01*
X533009Y499557D01*
X533731Y498476D01*
X534812Y497754D01*
X536086Y497501D01*
X537360Y497754D01*
X538441Y498476D01*
X539162Y499557D01*
X539416Y500831D01*
X539410Y500859D01*
X578764Y540213D01*
X626872D01*
X627764Y540391D01*
X628520Y540896D01*
X651888Y564264D01*
X652393Y565020D01*
X652571Y565912D01*
Y604621D01*
X652393Y605513D01*
X651888Y606269D01*
X644285Y613872D01*
Y659912D01*
X651888Y667515D01*
X652393Y668271D01*
X652571Y669163D01*
Y702615D01*
X663826Y713870D01*
X664331Y714626D01*
X664509Y715518D01*
Y722814D01*
X664331Y723706D01*
X663826Y724462D01*
X659223Y729066D01*
X658467Y729571D01*
X657575Y729748D01*
X626107D01*
X625855Y731018D01*
X625880Y731029D01*
X626720Y731590D01*
X626720Y731590D01*
X627410Y732280D01*
X627971Y733120D01*
X628344Y734021D01*
X628419Y734394D01*
X628529Y734758D01*
X628577Y735246D01*
X628565Y735374D01*
X628590Y735500D01*
Y740410D01*
X686308D01*
Y723827D01*
D02*
G37*
G36*
X720370Y739984D02*
X723524Y739139D01*
X726541Y737889D01*
X729369Y736257D01*
X731960Y734269D01*
X734269Y731960D01*
X736257Y729369D01*
X737889Y726541D01*
X739139Y723524D01*
X739984Y720370D01*
X740410Y717133D01*
Y715500D01*
Y575500D01*
X740410Y575016D01*
X740222Y574068D01*
X739852Y573174D01*
X739314Y572370D01*
X738630Y571686D01*
X737826Y571148D01*
X736932Y570778D01*
X735984Y570590D01*
X735500Y570590D01*
X735437Y570577D01*
X735373Y570587D01*
X734638Y570550D01*
X734452Y570504D01*
X734260D01*
X732818Y570217D01*
X732582Y570119D01*
X732332Y570070D01*
X730974Y569507D01*
X730761Y569365D01*
X730526Y569268D01*
X729303Y568451D01*
X729123Y568270D01*
X728911Y568129D01*
X727871Y567089D01*
X727729Y566877D01*
X727549Y566697D01*
X726732Y565474D01*
X726635Y565239D01*
X726493Y565027D01*
X725930Y563668D01*
X725881Y563418D01*
X725783Y563182D01*
X725496Y561740D01*
Y561548D01*
X725450Y561362D01*
X725414Y560627D01*
X725423Y560563D01*
X725410Y560500D01*
Y455500D01*
X725423Y455437D01*
X725414Y455373D01*
X725450Y454638D01*
X725496Y454452D01*
Y454260D01*
X725783Y452818D01*
X725881Y452582D01*
X725930Y452332D01*
X726493Y450974D01*
X726635Y450761D01*
X726732Y450526D01*
X727549Y449303D01*
X727730Y449123D01*
X727871Y448911D01*
X728911Y447871D01*
X729123Y447729D01*
X729303Y447549D01*
X730526Y446732D01*
X730761Y446635D01*
X730974Y446493D01*
X732332Y445930D01*
X732582Y445881D01*
X732818Y445783D01*
X734260Y445496D01*
X734452D01*
X734638Y445450D01*
X735373Y445414D01*
X735437Y445423D01*
X735500Y445410D01*
X735984D01*
X736932Y445222D01*
X737826Y444851D01*
X738630Y444314D01*
X739314Y443630D01*
X739852Y442826D01*
X740222Y441932D01*
X740410Y440984D01*
Y440500D01*
Y300500D01*
Y298867D01*
X739984Y295630D01*
X739139Y292475D01*
X737889Y289459D01*
X736257Y286631D01*
X734269Y284040D01*
X731960Y281731D01*
X729369Y279743D01*
X726541Y278111D01*
X723524Y276861D01*
X720370Y276016D01*
X717133Y275590D01*
X432590D01*
Y280500D01*
X432565Y280626D01*
X432577Y280754D01*
X432529Y281242D01*
X432419Y281606D01*
X432345Y281979D01*
X431971Y282880D01*
X431410Y283720D01*
X431410Y283720D01*
X430720Y284410D01*
X429880Y284971D01*
X428979Y285345D01*
X428606Y285419D01*
X428242Y285529D01*
X427754Y285577D01*
X427626Y285565D01*
X427500Y285590D01*
X392500D01*
X392374Y285565D01*
X392246Y285577D01*
X391758Y285529D01*
X391394Y285419D01*
X391021Y285345D01*
X390120Y284971D01*
X389280Y284410D01*
X389280Y284410D01*
X388590Y283720D01*
X388029Y282880D01*
X387655Y281979D01*
X387581Y281605D01*
X387471Y281241D01*
X387423Y280754D01*
X387435Y280626D01*
X387410Y280500D01*
Y275590D01*
X298867D01*
X295630Y276016D01*
X292475Y276861D01*
X289459Y278111D01*
X286631Y279743D01*
X284040Y281731D01*
X281731Y284040D01*
X279743Y286631D01*
X278111Y289459D01*
X276861Y292475D01*
X276016Y295630D01*
X275590Y298867D01*
Y300500D01*
Y715500D01*
Y717133D01*
X276016Y720370D01*
X276861Y723524D01*
X278111Y726541D01*
X279743Y729369D01*
X281731Y731960D01*
X284040Y734269D01*
X286631Y736257D01*
X289459Y737889D01*
X292475Y739139D01*
X295630Y739984D01*
X298867Y740410D01*
X335704D01*
Y660562D01*
X335775Y660392D01*
X335763Y660209D01*
X335910Y660041D01*
X335932Y660012D01*
X336026Y659784D01*
X336123Y658839D01*
X335987Y658323D01*
X335030Y657077D01*
X334222Y655127D01*
X333947Y653034D01*
X334222Y650941D01*
X335030Y648991D01*
X335987Y647745D01*
X336123Y647229D01*
X336026Y646283D01*
X335932Y646056D01*
X335910Y646027D01*
X335763Y645860D01*
X335775Y645676D01*
X335704Y645506D01*
Y541344D01*
X335280Y540996D01*
X333615Y540664D01*
X332204Y539722D01*
X331261Y538311D01*
X330930Y536646D01*
X331261Y534981D01*
X332204Y533570D01*
X333615Y532627D01*
X335280Y532296D01*
X335704Y531948D01*
Y523341D01*
X329922D01*
X329906Y523365D01*
X328826Y524087D01*
X327551Y524341D01*
X326277Y524087D01*
X325197Y523365D01*
X324475Y522285D01*
X324221Y521011D01*
X324475Y519736D01*
X325197Y518656D01*
X326277Y517934D01*
X327551Y517681D01*
X328826Y517934D01*
X329906Y518656D01*
X329922Y518680D01*
X335704D01*
Y513565D01*
X335634Y513434D01*
X335276Y513363D01*
X334195Y512641D01*
X333474Y511560D01*
X333220Y510286D01*
X333474Y509012D01*
X333548Y508900D01*
Y503555D01*
X332592Y502598D01*
X331655Y501973D01*
X330933Y500892D01*
X330680Y499618D01*
X330933Y498344D01*
X331655Y497263D01*
X332736Y496541D01*
X334010Y496288D01*
X334434Y496372D01*
X335704Y495411D01*
Y483544D01*
X335280Y483196D01*
X333615Y482864D01*
X332204Y481922D01*
X331261Y480510D01*
X330930Y478846D01*
X331261Y477182D01*
X332204Y475770D01*
X333615Y474827D01*
X335280Y474496D01*
X335704Y474148D01*
Y370748D01*
X335775Y370578D01*
X335763Y370395D01*
X335910Y370227D01*
X335932Y370198D01*
X336026Y369970D01*
X336123Y369025D01*
X335987Y368509D01*
X335030Y367263D01*
X334222Y365313D01*
X333947Y363220D01*
X334222Y361127D01*
X335030Y359177D01*
X335987Y357931D01*
X336123Y357415D01*
X336026Y356469D01*
X335932Y356242D01*
X335910Y356213D01*
X335763Y356045D01*
X335775Y355862D01*
X335704Y355692D01*
Y319138D01*
X336026Y318361D01*
X336804Y318039D01*
X336840D01*
X347808Y307070D01*
X348586Y306748D01*
X590091D01*
X590195Y306791D01*
X590306Y306769D01*
X590503Y306809D01*
X590700Y306769D01*
X590810Y306791D01*
X590914Y306748D01*
X666924D01*
X666926Y306749D01*
X666928Y306748D01*
X667313Y306909D01*
X667702Y307070D01*
X667702Y307072D01*
X667704Y307073D01*
X687088Y326586D01*
X687247Y326973D01*
X687408Y327361D01*
Y419185D01*
X687324Y419387D01*
Y419606D01*
X687169Y419761D01*
X687086Y419963D01*
X686683Y421220D01*
X695883Y430419D01*
X697056Y429933D01*
Y429340D01*
X703326D01*
Y436880D01*
X704596D01*
Y438150D01*
X712136D01*
Y444420D01*
X709814D01*
X709232Y445690D01*
X710263Y447233D01*
X710730Y449580D01*
X710263Y451927D01*
X708933Y453917D01*
X706943Y455247D01*
X704596Y455714D01*
X702249Y455247D01*
X700323Y453960D01*
X699669Y454096D01*
X699053Y454283D01*
Y718227D01*
X699077Y718243D01*
X699799Y719324D01*
X700052Y720598D01*
X699799Y721872D01*
X699077Y722953D01*
X697996Y723674D01*
X696722Y723928D01*
X695448Y723674D01*
X694367Y722953D01*
X693645Y721872D01*
X693392Y720598D01*
X693645Y719324D01*
X693757Y719157D01*
X693770Y718736D01*
X693562Y718565D01*
X692263Y718447D01*
X690140Y720570D01*
X690146Y720598D01*
X689893Y721872D01*
X689171Y722953D01*
X688090Y723674D01*
X687418Y723808D01*
X687408Y723827D01*
Y740410D01*
X717133D01*
X720370Y739984D01*
D02*
G37*
G36*
X561681Y555373D02*
X561809Y554691D01*
X528117Y520999D01*
X526373D01*
X526357Y521023D01*
X526272Y521079D01*
Y522607D01*
X526357Y522663D01*
X527079Y523744D01*
X527332Y525018D01*
X527326Y525046D01*
X558241Y555961D01*
X561340D01*
X561681Y555373D01*
D02*
G37*
G36*
X568201Y549611D02*
X568074Y549526D01*
X533197Y514649D01*
X527497D01*
X527094Y515067D01*
X527635Y516337D01*
X529082D01*
X529974Y516515D01*
X530730Y517020D01*
X564591Y550881D01*
X567816D01*
X568201Y549611D01*
D02*
G37*
G36*
X689311Y656366D02*
Y444649D01*
X688640Y444113D01*
X687408Y444659D01*
Y656282D01*
X688041Y656853D01*
X689311Y656366D01*
D02*
G37*
G36*
X686308Y433194D02*
Y427437D01*
X588715Y329844D01*
X427070D01*
X365297Y391618D01*
Y393887D01*
X366567Y394012D01*
X366655Y393570D01*
X367160Y392814D01*
X427104Y332870D01*
X427860Y332365D01*
X428752Y332187D01*
X582676D01*
X583568Y332365D01*
X584324Y332870D01*
X685135Y433680D01*
X686308Y433194D01*
D02*
G37*
%LPC*%
G36*
X386334Y713006D02*
X385060Y712753D01*
X383979Y712031D01*
X383881Y711883D01*
X383611Y711829D01*
X382854Y711324D01*
X370202Y698672D01*
X369841Y698744D01*
X368566Y698490D01*
X367486Y697768D01*
X366764Y696688D01*
X366511Y695414D01*
X366764Y694139D01*
X367486Y693059D01*
X368566Y692337D01*
X369841Y692084D01*
X371115Y692337D01*
X372195Y693059D01*
X372917Y694139D01*
X373079Y694957D01*
X384857Y706735D01*
X385060Y706600D01*
X386334Y706346D01*
X387608Y706600D01*
X388689Y707321D01*
X389411Y708402D01*
X389664Y709676D01*
X389411Y710950D01*
X388689Y712031D01*
X387608Y712753D01*
X386334Y713006D01*
D02*
G37*
G36*
X546862Y728500D02*
X545588Y728247D01*
X544507Y727525D01*
X543786Y726444D01*
X543532Y725170D01*
X543786Y723896D01*
X544507Y722815D01*
X544785Y722630D01*
Y690604D01*
X544294Y689868D01*
X544040Y688594D01*
X544294Y687320D01*
X545015Y686239D01*
X546096Y685518D01*
X547370Y685264D01*
X548644Y685518D01*
X549725Y686239D01*
X550447Y687320D01*
X550700Y688594D01*
X550447Y689868D01*
X549725Y690949D01*
X549447Y691134D01*
Y723160D01*
X549939Y723896D01*
X550192Y725170D01*
X549939Y726444D01*
X549217Y727525D01*
X548136Y728247D01*
X546862Y728500D01*
D02*
G37*
G36*
X587952Y658413D02*
X575056D01*
X574164Y658235D01*
X573408Y657730D01*
X466141Y550463D01*
X390677D01*
X389889Y550989D01*
X388615Y551243D01*
X387340Y550989D01*
X386260Y550268D01*
X385538Y549187D01*
X385285Y547913D01*
X385538Y546639D01*
X386260Y545558D01*
X387340Y544837D01*
X388615Y544583D01*
X389889Y544837D01*
X390969Y545558D01*
X391132Y545801D01*
X467106D01*
X467998Y545979D01*
X468754Y546484D01*
X576021Y653751D01*
X586987D01*
X600419Y640319D01*
X600413Y640291D01*
X600667Y639017D01*
X601388Y637936D01*
X602469Y637215D01*
X603743Y636961D01*
X605017Y637215D01*
X606098Y637936D01*
X606819Y639017D01*
X607073Y640291D01*
X606819Y641565D01*
X606098Y642646D01*
X605017Y643367D01*
X603743Y643621D01*
X603715Y643615D01*
X589600Y657730D01*
X588844Y658235D01*
X587952Y658413D01*
D02*
G37*
G36*
X396020Y593004D02*
X394745Y592751D01*
X393665Y592029D01*
X392943Y590948D01*
X392690Y589674D01*
X392943Y588400D01*
X393314Y587845D01*
Y584754D01*
X379860Y571300D01*
X379832Y571306D01*
X378558Y571052D01*
X377477Y570330D01*
X376755Y569250D01*
X376502Y567976D01*
X376755Y566701D01*
X377477Y565621D01*
X378558Y564899D01*
X379832Y564646D01*
X381106Y564899D01*
X382187Y565621D01*
X382909Y566701D01*
X383162Y567976D01*
X383156Y568004D01*
X397293Y582140D01*
X397798Y582896D01*
X397976Y583788D01*
Y587053D01*
X398374Y587319D01*
X399096Y588400D01*
X399350Y589674D01*
X399096Y590948D01*
X398374Y592029D01*
X397294Y592751D01*
X396020Y593004D01*
D02*
G37*
G36*
X614048Y529720D02*
X596516D01*
Y512188D01*
X614048D01*
Y529720D01*
D02*
G37*
G36*
X606552Y505766D02*
Y496824D01*
X615494D01*
X615307Y498240D01*
X614270Y500743D01*
X612621Y502893D01*
X610471Y504542D01*
X607968Y505579D01*
X606552Y505766D01*
D02*
G37*
G36*
X604012D02*
X602596Y505579D01*
X600093Y504542D01*
X597943Y502893D01*
X596294Y500743D01*
X595257Y498240D01*
X595070Y496824D01*
X604012D01*
Y505766D01*
D02*
G37*
G36*
X615494Y494284D02*
X606552D01*
Y485342D01*
X607968Y485529D01*
X610471Y486566D01*
X612621Y488215D01*
X614270Y490365D01*
X615307Y492868D01*
X615494Y494284D01*
D02*
G37*
G36*
X604012D02*
X595070D01*
X595257Y492868D01*
X596294Y490365D01*
X597943Y488215D01*
X600093Y486566D01*
X602596Y485529D01*
X604012Y485342D01*
Y494284D01*
D02*
G37*
G36*
X297032Y661119D02*
X294939Y660844D01*
X292989Y660036D01*
X291315Y658751D01*
X290030Y657077D01*
X289222Y655127D01*
X288947Y653034D01*
X289222Y650941D01*
X290030Y648991D01*
X291315Y647317D01*
X292989Y646032D01*
X294939Y645224D01*
X297032Y644949D01*
X299125Y645224D01*
X301075Y646032D01*
X302749Y647317D01*
X304034Y648991D01*
X304842Y650941D01*
X305117Y653034D01*
X304842Y655127D01*
X304034Y657077D01*
X302749Y658751D01*
X301075Y660036D01*
X299125Y660844D01*
X297032Y661119D01*
D02*
G37*
G36*
X712136Y435610D02*
X705866D01*
Y429340D01*
X712136D01*
Y435610D01*
D02*
G37*
G36*
X707967Y620964D02*
X706693Y620710D01*
X705612Y619988D01*
X704891Y618908D01*
X704637Y617634D01*
X704891Y616359D01*
X705612Y615279D01*
X705636Y615263D01*
Y464243D01*
X705814Y463351D01*
X706319Y462595D01*
X713441Y455473D01*
Y420065D01*
X707926Y414550D01*
X707898Y414556D01*
X706624Y414302D01*
X705543Y413581D01*
X704821Y412500D01*
X704568Y411226D01*
X704821Y409952D01*
X705543Y408871D01*
X706624Y408149D01*
X707898Y407896D01*
X709172Y408149D01*
X710253Y408871D01*
X710975Y409952D01*
X711228Y411226D01*
X711222Y411254D01*
X717420Y417452D01*
X717925Y418208D01*
X718103Y419100D01*
Y456438D01*
X717925Y457330D01*
X717420Y458086D01*
X710298Y465208D01*
Y615263D01*
X710322Y615279D01*
X711044Y616359D01*
X711297Y617634D01*
X711044Y618908D01*
X710322Y619988D01*
X709241Y620710D01*
X707967Y620964D01*
D02*
G37*
G36*
X724198Y390018D02*
X722924Y389764D01*
X721843Y389043D01*
X721121Y387962D01*
X720868Y386688D01*
X720962Y386217D01*
X718583Y383839D01*
X718077Y383082D01*
X717900Y382190D01*
Y380266D01*
X716393Y378759D01*
X706205D01*
X706189Y378783D01*
X705108Y379505D01*
X703834Y379758D01*
X702560Y379505D01*
X701479Y378783D01*
X700758Y377702D01*
X700504Y376428D01*
X700758Y375154D01*
X701479Y374073D01*
X702560Y373352D01*
X703834Y373098D01*
X705108Y373352D01*
X706189Y374073D01*
X706205Y374097D01*
X717358D01*
X718250Y374275D01*
X719006Y374780D01*
X721879Y377653D01*
X722384Y378409D01*
X722561Y379301D01*
Y381225D01*
X724818Y383481D01*
X725472Y383611D01*
X726553Y384333D01*
X727274Y385414D01*
X727528Y386688D01*
X727274Y387962D01*
X726553Y389043D01*
X725472Y389764D01*
X724198Y390018D01*
D02*
G37*
G36*
X297032Y371305D02*
X294939Y371030D01*
X292989Y370222D01*
X291315Y368937D01*
X290030Y367263D01*
X289222Y365313D01*
X288947Y363220D01*
X289222Y361127D01*
X290030Y359177D01*
X291315Y357503D01*
X292989Y356218D01*
X294939Y355410D01*
X297032Y355135D01*
X299125Y355410D01*
X301075Y356218D01*
X302749Y357503D01*
X304034Y359177D01*
X304842Y361127D01*
X305117Y363220D01*
X304842Y365313D01*
X304034Y367263D01*
X302749Y368937D01*
X301075Y370222D01*
X299125Y371030D01*
X297032Y371305D01*
D02*
G37*
%LPD*%
D17*
X395645Y589195D02*
X396226Y589776D01*
X395645Y583788D02*
Y589195D01*
X379832Y567976D02*
X395645Y583788D01*
X376188Y432040D02*
X382149Y426079D01*
X366254Y432040D02*
X376188D01*
X362966Y428752D02*
X366254Y432040D01*
X384503Y709676D02*
X386334D01*
X370240Y695414D02*
X384503Y709676D01*
X369841Y695414D02*
X370240D01*
X421950Y521011D02*
X425958Y525018D01*
X327551Y521011D02*
X421950D01*
X662178Y715518D02*
Y722814D01*
X623786Y727418D02*
X657575D01*
X662178Y722814D01*
X616712Y720344D02*
X623786Y727418D01*
X500947Y494651D02*
X525199Y470399D01*
Y470180D02*
Y470399D01*
X500947Y494651D02*
Y536611D01*
X557763Y593426D01*
X595673D01*
X614858Y612611D01*
Y701524D01*
X606806Y709576D02*
X614858Y701524D01*
X606806Y709576D02*
Y720344D01*
X587952Y656082D02*
X603743Y640291D01*
X575056Y656082D02*
X587952D01*
X577799Y542544D02*
X626872D01*
X536086Y500831D02*
X577799Y542544D01*
X724198Y386157D02*
Y386688D01*
X720231Y382190D02*
X724198Y386157D01*
X720231Y379301D02*
Y382190D01*
X717358Y376428D02*
X720231Y379301D01*
X703834Y376428D02*
X717358D01*
X634748Y681531D02*
Y717784D01*
X626222Y673005D02*
X634748Y681531D01*
Y717784D02*
X636778Y719814D01*
X641954Y612907D02*
X650240Y604621D01*
X641954Y660877D02*
X650240Y669163D01*
X641954Y612907D02*
Y660877D01*
X636949Y609419D02*
X645160Y601207D01*
X636949Y665651D02*
X645160Y673862D01*
X636949Y609419D02*
Y665651D01*
X631683Y606600D02*
X640080Y598203D01*
X631683Y669656D02*
X640080Y678053D01*
X631683Y606600D02*
Y669656D01*
X626222Y603392D02*
X635254Y594360D01*
X626222Y603392D02*
Y673005D01*
X645160Y568706D02*
Y601207D01*
X650240Y565912D02*
Y604621D01*
X640080Y570992D02*
Y598203D01*
X635254Y573278D02*
Y594360D01*
X650240Y669163D02*
Y703580D01*
X645160Y673862D02*
Y708914D01*
X640080Y678053D02*
Y713740D01*
X620776Y600710D02*
X628650Y592836D01*
X620776Y714502D02*
X626618Y720344D01*
X620776Y600710D02*
Y714502D01*
X686816Y720598D02*
X691642Y715772D01*
X582676Y334518D02*
X691642Y443484D01*
Y715772D01*
X715772Y419100D02*
Y456438D01*
X707898Y411226D02*
X715772Y419100D01*
X707967Y464243D02*
X715772Y456438D01*
X707967Y464243D02*
Y617634D01*
X388620Y548132D02*
X467106D01*
X575056Y656082D01*
X382149Y413633D02*
Y426079D01*
Y413633D02*
X382524Y413258D01*
X426105Y327513D02*
X589681D01*
X362966Y390652D02*
Y428752D01*
Y390652D02*
X426105Y327513D01*
X368808Y394462D02*
Y411226D01*
X523918Y512421D02*
X524021Y512318D01*
X534162D01*
X569722Y547878D01*
X529082Y518668D02*
X563626Y553212D01*
X524002Y518668D02*
X529082D01*
X524002Y525018D02*
X557276Y558292D01*
X620268D02*
X635254Y573278D01*
X626872Y542544D02*
X650240Y565912D01*
X624332Y547878D02*
X645160Y568706D01*
X569722Y547878D02*
X624332D01*
X622300Y553212D02*
X640080Y570992D01*
X563626Y553212D02*
X622300D01*
X650240Y703580D02*
X662178Y715518D01*
X645160Y708914D02*
X656590Y720344D01*
X640080Y713740D02*
X646684Y720344D01*
X636778Y719814D02*
Y720344D01*
X368808Y394462D02*
X428752Y334518D01*
X582676D01*
X589681Y327513D02*
X696722Y434555D01*
Y720598D01*
X557276Y558292D02*
X620268D01*
X547116Y688848D02*
X547370Y688594D01*
X547116Y688848D02*
Y724916D01*
X546862Y725170D02*
X547116Y724916D01*
D27*
X704596Y449580D02*
D03*
D75*
X336526Y510262D02*
X336550Y510286D01*
X336526Y502321D02*
Y510262D01*
X334010Y499805D02*
X336526Y502321D01*
X334010Y499618D02*
Y499805D01*
D76*
X704596Y436880D02*
D03*
D77*
X342032Y363220D02*
D03*
X297032D02*
D03*
X342032Y653034D02*
D03*
X297032D02*
D03*
D78*
X335280Y478846D02*
D03*
Y536646D02*
D03*
D79*
X605282Y520954D02*
D03*
D80*
Y495554D02*
D03*
D81*
X590503Y304600D02*
D03*
X533446Y648112D02*
D03*
X396020Y589674D02*
D03*
X379832Y567976D02*
D03*
X369841Y695414D02*
D03*
X327551Y521011D02*
D03*
X525199Y470180D02*
D03*
X546862Y725170D02*
D03*
X707967Y617634D02*
D03*
X636778Y720344D02*
D03*
X616712D02*
D03*
X587411Y649190D02*
D03*
X626618Y720344D02*
D03*
X686816Y720598D02*
D03*
X686008Y679041D02*
D03*
X706697Y627540D02*
D03*
X656590Y619760D02*
D03*
X646684Y720344D02*
D03*
X656590D02*
D03*
X685246Y658975D02*
D03*
X696722Y720598D02*
D03*
X712978Y627634D02*
D03*
X606806Y720344D02*
D03*
X603743Y640291D02*
D03*
X536086Y500831D02*
D03*
X355374Y463348D02*
D03*
X394981Y532402D02*
D03*
X400955Y526859D02*
D03*
X724198Y386688D02*
D03*
X659060Y325408D02*
D03*
X681194Y378961D02*
D03*
X644876Y540555D02*
D03*
X614377Y602229D02*
D03*
X646938Y443484D02*
D03*
X629158Y431038D02*
D03*
X613918Y447548D02*
D03*
X456692Y310642D02*
D03*
X370332Y424434D02*
D03*
X354838Y539750D02*
D03*
X354584Y475742D02*
D03*
X388305Y490521D02*
D03*
X373380Y548640D02*
D03*
X367030Y705866D02*
D03*
X470662Y656336D02*
D03*
X607060Y694182D02*
D03*
X677672Y543814D02*
D03*
X665226Y544068D02*
D03*
X355603Y448747D02*
D03*
X707898Y411226D02*
D03*
X714248Y514604D02*
D03*
X691388Y307594D02*
D03*
X725678Y328422D02*
D03*
X413512Y295656D02*
D03*
X397256Y295402D02*
D03*
X413512Y319786D02*
D03*
X397256D02*
D03*
X326212Y433575D02*
D03*
X327914Y641858D02*
D03*
Y650748D02*
D03*
Y659130D02*
D03*
X330742Y733890D02*
D03*
X331470Y580136D02*
D03*
X323850D02*
D03*
X316230D02*
D03*
X355092Y548894D02*
D03*
X354330Y558292D02*
D03*
X354838Y565912D02*
D03*
X355092Y314706D02*
D03*
X355600Y322834D02*
D03*
X355346Y332232D02*
D03*
Y601218D02*
D03*
X355600Y611632D02*
D03*
X355346Y621792D02*
D03*
X336550Y510286D02*
D03*
X334010Y499618D02*
D03*
X386334Y709676D02*
D03*
X425867Y525121D02*
D03*
X388615Y547913D02*
D03*
X382524Y413258D02*
D03*
X368808Y411226D02*
D03*
X362966Y428752D02*
D03*
X703834Y376428D02*
D03*
X524002Y525018D02*
D03*
Y518668D02*
D03*
X523918Y512421D02*
D03*
X547370Y688594D02*
D03*
X628719Y592996D02*
D03*
M02*
