G04*
G04 #@! TF.GenerationSoftware,Altium Limited,Altium Designer,20.1.14 (287)*
G04*
G04 Layer_Color=0*
%FSLAX44Y44*%
%MOMM*%
G71*
G04*
G04 #@! TF.SameCoordinates,D1A4AC06-9C69-4D29-80E8-20607C734ED5*
G04*
G04*
G04 #@! TF.FilePolarity,Positive*
G04*
G01*
G75*
%ADD85C,0.0500*%
D85*
X744500Y616536D02*
Y721536D01*
X586210D02*
X744500D01*
X586210Y616536D02*
Y721536D01*
Y616536D02*
X744500D01*
X608746Y548574D02*
Y584774D01*
Y548574D02*
X635346D01*
Y584774D01*
X608746D02*
X635346D01*
X249532Y335720D02*
Y390720D01*
Y335720D02*
X274532D01*
Y298720D02*
Y335720D01*
Y298720D02*
X353532D01*
Y320720D01*
X374532D01*
Y351720D01*
X388532D01*
Y374720D01*
X374532D02*
X388532D01*
X374532D02*
Y405720D01*
X353532D02*
X374532D01*
X353532D02*
Y427720D01*
X274532D02*
X353532D01*
X274532Y390720D02*
Y427720D01*
X249532Y390720D02*
X274532D01*
X249532Y625534D02*
Y680534D01*
Y625534D02*
X274532D01*
Y588534D02*
Y625534D01*
Y588534D02*
X353532D01*
Y610534D01*
X374532D01*
Y641534D01*
X388532D01*
Y664534D01*
X374532D02*
X388532D01*
X374532D02*
Y695534D01*
X353532D02*
X374532D01*
X353532D02*
Y717534D01*
X274532D02*
X353532D01*
X274532Y680534D02*
Y717534D01*
X249532Y680534D02*
X274532D01*
M02*
