G04*
G04 #@! TF.GenerationSoftware,Altium Limited,Altium Designer,20.1.14 (287)*
G04*
G04 Layer_Color=8388736*
%FSLAX44Y44*%
%MOMM*%
G71*
G04*
G04 #@! TF.SameCoordinates,D1A4AC06-9C69-4D29-80E8-20607C734ED5*
G04*
G04*
G04 #@! TF.FilePolarity,Positive*
G04*
G01*
G75*
%ADD82C,0.0127*%
D82*
X295085Y705000D02*
G03*
X294085Y704000I0J-1000D01*
G01*
X310085Y704000D02*
G03*
X309085Y705000I-1000J0D01*
G01*
X307033Y705000D02*
G03*
X306099Y704357I0J-1000D01*
G01*
X300339Y698432D02*
G03*
X303832Y698432I1746J668D01*
G01*
X298071Y704357D02*
G03*
X297137Y705000I-934J-357D01*
G01*
X376085Y648000D02*
G03*
X377085Y649000I0J1000D01*
G01*
Y649771D02*
G03*
X376391Y650723I-1000J0D01*
G01*
X373003Y654190D02*
G03*
X373003Y651810I382J-1190D01*
G01*
X376391Y655277D02*
G03*
X377085Y656229I-305J952D01*
G01*
Y657000D02*
G03*
X376085Y658000I-1000J0D01*
G01*
X345314Y701000D02*
G03*
X344362Y700305I-0J-1000D01*
G01*
X340895Y696918D02*
G03*
X343275Y696918I1190J382D01*
G01*
X339808Y700305D02*
G03*
X338856Y701000I-952J-305D01*
G01*
X338085D02*
G03*
X337085Y700000I0J-1000D01*
G01*
X347085D02*
G03*
X346085Y701000I-1000J0D01*
G01*
Y605000D02*
G03*
X347085Y606000I0J1000D01*
G01*
X337085D02*
G03*
X338085Y605000I1000J0D01*
G01*
X338856D02*
G03*
X339808Y605695I0J1000D01*
G01*
X343275Y609082D02*
G03*
X340895Y609082I-1190J-382D01*
G01*
X344362Y605695D02*
G03*
X345314Y605000I952J305D01*
G01*
X297137Y601000D02*
G03*
X298071Y601643I0J1000D01*
G01*
X303832Y607568D02*
G03*
X300339Y607568I-1746J-668D01*
G01*
X306099Y601643D02*
G03*
X307033Y601000I934J357D01*
G01*
X309085D02*
G03*
X310085Y602000I0J1000D01*
G01*
X294085D02*
G03*
X295085Y601000I1000J0D01*
G01*
X295552Y452702D02*
G03*
X297202Y451052I1650J0D01*
G01*
X297244D02*
G03*
X298758Y452046I0J1650D01*
G01*
X303346D02*
G03*
X298758Y452046I-2294J-994D01*
G01*
X303346D02*
G03*
X304860Y451052I1514J656D01*
G01*
X304902D02*
G03*
X306552Y452702I0J1650D01*
G01*
X376391Y365277D02*
G03*
X377085Y366229I-305J952D01*
G01*
Y367000D02*
G03*
X376085Y368000I-1000J0D01*
G01*
Y358000D02*
G03*
X377085Y359000I0J1000D01*
G01*
Y359771D02*
G03*
X376391Y360723I-1000J0D01*
G01*
X373003Y364190D02*
G03*
X373003Y361810I382J-1190D01*
G01*
X736866Y315707D02*
G03*
X736866Y332293I-1866J8293D01*
G01*
X336502Y564052D02*
G03*
X334852Y562402I0J-1650D01*
G01*
X345852D02*
G03*
X344202Y564052I-1650J0D01*
G01*
X344160D02*
G03*
X342646Y563058I0J-1650D01*
G01*
X338058D02*
G03*
X342646Y563058I2294J994D01*
G01*
X338058D02*
G03*
X336544Y564052I-1514J-656D01*
G01*
X309085Y311000D02*
G03*
X310085Y312000I-0J1000D01*
G01*
X294085Y312000D02*
G03*
X295085Y311000I1000J0D01*
G01*
X297137D02*
G03*
X298071Y311643I0J1000D01*
G01*
X303832Y317568D02*
G03*
X300339Y317568I-1746J-668D01*
G01*
X306099Y311643D02*
G03*
X307033Y311000I934J357D01*
G01*
X337085Y316000D02*
G03*
X338085Y315000I1000J0D01*
G01*
X338856D02*
G03*
X339808Y315695I0J1000D01*
G01*
X343275Y319082D02*
G03*
X340895Y319082I-1190J-382D01*
G01*
X344362Y315695D02*
G03*
X345314Y315000I952J305D01*
G01*
X346085D02*
G03*
X347085Y316000I0J1000D01*
G01*
X340895Y406918D02*
G03*
X343275Y406918I1190J382D01*
G01*
X339808Y410305D02*
G03*
X338856Y411000I-952J-305D01*
G01*
X338085D02*
G03*
X337085Y410000I0J-1000D01*
G01*
X347085D02*
G03*
X346085Y411000I-1000J0D01*
G01*
X345314D02*
G03*
X344362Y410305I-0J-1000D01*
G01*
X310085Y414000D02*
G03*
X309085Y415000I-1000J0D01*
G01*
X307033D02*
G03*
X306099Y414357I0J-1000D01*
G01*
X300339Y408432D02*
G03*
X303832Y408432I1746J668D01*
G01*
X298071Y414357D02*
G03*
X297137Y415000I-934J-357D01*
G01*
X295085D02*
G03*
X294085Y414000I-0J-1000D01*
G01*
X336544Y451052D02*
G03*
X338058Y452046I0J1650D01*
G01*
X342646D02*
G03*
X338058Y452046I-2294J-994D01*
G01*
X342646D02*
G03*
X344160Y451052I1514J656D01*
G01*
X344202D02*
G03*
X345852Y452702I0J1650D01*
G01*
X334852D02*
G03*
X336502Y451052I1650J0D01*
G01*
X306552Y562402D02*
G03*
X304902Y564052I-1650J0D01*
G01*
X304860D02*
G03*
X303346Y563058I0J-1650D01*
G01*
X298758D02*
G03*
X303346Y563058I2294J994D01*
G01*
X298758D02*
G03*
X297244Y564052I-1514J-656D01*
G01*
X297202D02*
G03*
X295552Y562402I0J-1650D01*
G01*
X300500Y743000D02*
G03*
X273000Y715500I0J-27500D01*
G01*
Y300500D02*
G03*
X300500Y273000I27500J0D01*
G01*
X387500Y273000D02*
G03*
X390000Y275500I-0J2500D01*
G01*
X392500Y283000D02*
G03*
X390000Y280500I0J-2500D01*
G01*
X430000D02*
G03*
X427500Y283000I-2500J0D01*
G01*
X430000Y275500D02*
G03*
X432500Y273000I2500J-0D01*
G01*
X715500Y273000D02*
G03*
X743000Y300500I0J27500D01*
G01*
X743000Y440500D02*
G03*
X735500Y448000I-7500J-0D01*
G01*
X728000Y455500D02*
G03*
X735500Y448000I7500J0D01*
G01*
Y568000D02*
G03*
X728000Y560500I0J-7500D01*
G01*
X735500Y568000D02*
G03*
X743000Y575500I0J7500D01*
G01*
Y715500D02*
G03*
X715500Y743000I-27500J0D01*
G01*
X628500Y743000D02*
G03*
X626000Y740500I0J-2500D01*
G01*
X623500Y733000D02*
G03*
X626000Y735500I0J2500D01*
G01*
X586000D02*
G03*
X588500Y733000I2500J0D01*
G01*
X586000Y740500D02*
G03*
X583500Y743000I-2500J0D01*
G01*
X648700Y595000D02*
Y605500D01*
Y595000D02*
X652700D01*
Y605500D01*
X648700D02*
X652700D01*
X295085Y705000D02*
X297137D01*
X294085Y693000D02*
Y704000D01*
Y693000D02*
X310085D01*
Y704000D01*
X307033Y705000D02*
X309085D01*
X303832Y698432D02*
X306099Y704357D01*
X298071D02*
X300339Y698432D01*
X372085Y658000D02*
X376085D01*
X372085Y648000D02*
Y658000D01*
Y648000D02*
X376085D01*
X377085Y649000D02*
Y649771D01*
X373003Y651810D02*
X376391Y650723D01*
X373003Y654190D02*
X376391Y655277D01*
X377085Y656229D02*
Y657000D01*
X343275Y696918D02*
X344362Y700305D01*
X339808D02*
X340895Y696918D01*
X338085Y701000D02*
X338856D01*
X337085Y690000D02*
Y700000D01*
Y690000D02*
X347085D01*
Y700000D01*
X345314Y701000D02*
X346085D01*
X674100Y595000D02*
Y605500D01*
Y595000D02*
X678100D01*
Y605500D01*
X674100D02*
X678100D01*
X661400Y595000D02*
Y605500D01*
Y595000D02*
X665400D01*
Y605500D01*
X661400D02*
X665400D01*
X686800Y595000D02*
X690800D01*
Y605500D01*
X686800D02*
X690800D01*
X686800Y595000D02*
Y605500D01*
X591825Y619006D02*
X741825D01*
Y719006D01*
X591825D02*
X741825D01*
X591825Y619006D02*
Y719006D01*
X608000Y279000D02*
Y364000D01*
Y279000D02*
X693000D01*
Y364000D01*
X608000D02*
X693000D01*
X715500Y309000D02*
X720500D01*
X715500D02*
Y310800D01*
X720500D01*
Y309000D02*
Y310800D01*
X556050Y377770D02*
X561550D01*
Y387320D01*
X556050D02*
X561550D01*
X556050Y377770D02*
Y387320D01*
X479850D02*
X485350D01*
X479850Y377770D02*
Y387320D01*
Y377770D02*
X485350D01*
Y387320D01*
X640000Y550500D02*
Y561000D01*
X636000D02*
X640000D01*
X636000Y550500D02*
Y561000D01*
Y550500D02*
X640000D01*
X648700Y561000D02*
X652700D01*
X648700Y550500D02*
Y561000D01*
Y550500D02*
X652700D01*
Y561000D01*
X505250Y377770D02*
Y387320D01*
Y377770D02*
X510750D01*
Y387320D01*
X505250D02*
X510750D01*
X459950Y377770D02*
Y387320D01*
X454450D02*
X459950D01*
X454450Y377770D02*
Y387320D01*
Y377770D02*
X459950D01*
X678100Y550500D02*
Y561000D01*
X674100D02*
X678100D01*
X674100Y550500D02*
Y561000D01*
Y550500D02*
X678100D01*
X347085Y606000D02*
Y616000D01*
X337085D02*
X347085D01*
X337085Y606000D02*
Y616000D01*
X338085Y605000D02*
X338856D01*
X339808Y605695D02*
X340895Y609082D01*
X343275D02*
X344362Y605695D01*
X345314Y605000D02*
X346085D01*
X530650Y377770D02*
X536150D01*
Y387320D01*
X530650D02*
X536150D01*
X530650Y377770D02*
Y387320D01*
X295085Y601000D02*
X297137D01*
X298071Y601643D02*
X300339Y607568D01*
X303832D02*
X306099Y601643D01*
X307033Y601000D02*
X309085D01*
X310085Y602000D02*
Y612000D01*
X294085D02*
X310085D01*
X294085Y602000D02*
Y612000D01*
X661400Y550500D02*
X665400D01*
Y561000D01*
X661400D02*
X665400D01*
X661400Y550500D02*
Y561000D01*
X686800Y550500D02*
Y561000D01*
Y550500D02*
X690800D01*
Y561000D01*
X686800D02*
X690800D01*
X306552Y452702D02*
Y461852D01*
X295552D02*
X306552D01*
X295552Y452702D02*
Y461852D01*
X297202Y451052D02*
X297244D01*
X304860D02*
X304902D01*
X377085Y366229D02*
Y367000D01*
X372085Y368000D02*
X376085D01*
X372085Y358000D02*
Y368000D01*
Y358000D02*
X376085D01*
X377085Y359000D02*
Y359771D01*
X373003Y361810D02*
X376391Y360723D01*
X373003Y364190D02*
X376391Y365277D01*
X534375Y661500D02*
X539551D01*
X534375Y654500D02*
Y661500D01*
Y654500D02*
X539551D01*
Y661500D01*
X534375Y684500D02*
Y691500D01*
Y684500D02*
X539551D01*
Y691500D01*
X534375D02*
X539551D01*
X736866Y315707D02*
Y332293D01*
X334852Y553252D02*
Y562402D01*
Y553252D02*
X345852D01*
Y562402D01*
X344160Y564052D02*
X344202D01*
X336502D02*
X336544D01*
X715500Y337200D02*
X720500D01*
X715500D02*
Y339000D01*
X720500D01*
Y337200D02*
Y339000D01*
X636000Y595000D02*
X640000D01*
Y605500D01*
X636000D02*
X640000D01*
X636000Y595000D02*
Y605500D01*
X561550Y288220D02*
Y297770D01*
X556050D02*
X561550D01*
X556050Y288220D02*
Y297770D01*
Y288220D02*
X561550D01*
X310085Y312000D02*
Y322000D01*
X294085D02*
X310085D01*
X294085Y312000D02*
Y322000D01*
X295085Y311000D02*
X297137D01*
X298071Y311643D02*
X300339Y317568D01*
X303832D02*
X306099Y311643D01*
X307033Y311000D02*
X309085D01*
X530650Y297770D02*
X536150D01*
X530650Y288220D02*
Y297770D01*
Y288220D02*
X536150D01*
Y297770D01*
X337085Y326000D02*
X347085D01*
X337085Y316000D02*
Y326000D01*
X338085Y315000D02*
X338856D01*
X339808Y315695D02*
X340895Y319082D01*
X343275D02*
X344362Y315695D01*
X345314Y315000D02*
X346085D01*
X347085Y316000D02*
Y326000D01*
X505250Y297770D02*
X510750D01*
X505250Y288220D02*
Y297770D01*
Y288220D02*
X510750D01*
Y297770D01*
X479850D02*
X485350D01*
X479850Y288220D02*
Y297770D01*
Y288220D02*
X485350D01*
Y297770D01*
X459950Y288220D02*
Y297770D01*
X454450D02*
X459950D01*
X454450Y288220D02*
Y297770D01*
Y288220D02*
X459950D01*
X343275Y406918D02*
X344362Y410305D01*
X339808D02*
X340895Y406918D01*
X338085Y411000D02*
X338856D01*
X337085Y400000D02*
Y410000D01*
Y400000D02*
X347085D01*
Y410000D01*
X345314Y411000D02*
X346085D01*
X294085Y403000D02*
X310085D01*
Y414000D01*
X307033Y415000D02*
X309085D01*
X303832Y408432D02*
X306099Y414357D01*
X298071D02*
X300339Y408432D01*
X295085Y415000D02*
X297137D01*
X294085Y403000D02*
Y414000D01*
X474551Y654500D02*
X479728D01*
Y661500D01*
X474551D02*
X479728D01*
X474551Y654500D02*
Y661500D01*
X336502Y451052D02*
X336544D01*
X344160D02*
X344202D01*
X345852Y452702D02*
Y461852D01*
X334852D02*
X345852D01*
X334852Y452702D02*
Y461852D01*
X474551Y691500D02*
X479728D01*
X474551Y684500D02*
Y691500D01*
Y684500D02*
X479728D01*
Y691500D01*
X720500Y310800D02*
Y337200D01*
X715500Y310800D02*
X720500D01*
X715500D02*
Y337200D01*
X720500D01*
X304860Y564052D02*
X304902D01*
X297202D02*
X297244D01*
X295552Y553252D02*
Y562402D01*
Y553252D02*
X306552D01*
Y562402D01*
X300500Y743000D02*
X583500D01*
X273000Y300500D02*
Y715500D01*
X300500Y273000D02*
X387500D01*
X390000Y275500D02*
Y280500D01*
X392500Y283000D02*
X427500D01*
X430000Y275500D02*
Y280500D01*
X432500Y273000D02*
X715500D01*
X743000Y300500D02*
Y440500D01*
X728000Y455500D02*
Y560500D01*
X743000Y575500D02*
Y715500D01*
X628500Y743000D02*
X715500D01*
X626000Y735500D02*
Y740500D01*
X588500Y733000D02*
X623500D01*
X586000Y735500D02*
Y740500D01*
M02*
