G04*
G04 #@! TF.GenerationSoftware,Altium Limited,Altium Designer,20.1.14 (287)*
G04*
G04 Layer_Color=32768*
%FSLAX44Y44*%
%MOMM*%
G71*
G04*
G04 #@! TF.SameCoordinates,D1A4AC06-9C69-4D29-80E8-20607C734ED5*
G04*
G04*
G04 #@! TF.FilePolarity,Positive*
G04*
G01*
G75*
%ADD18C,0.0762*%
%ADD83C,0.0254*%
D18*
X595830Y734579D02*
Y747275D01*
X589482D01*
X587366Y745159D01*
Y736695D01*
X589482Y734579D01*
X595830D01*
X576786Y747275D02*
X581018D01*
X583134Y745159D01*
Y740927D01*
X581018Y738811D01*
X576786D01*
X574670Y740927D01*
Y743043D01*
X583134D01*
X568323Y747275D02*
Y736695D01*
Y740927D01*
X570439D01*
X566207D01*
X568323D01*
Y736695D01*
X566207Y734579D01*
X557743Y738811D02*
X553511D01*
X551395Y740927D01*
Y747275D01*
X557743D01*
X559859Y745159D01*
X557743Y743043D01*
X551395D01*
X547163Y738811D02*
Y745159D01*
X545047Y747275D01*
X538699D01*
Y738811D01*
X534467Y747275D02*
X530235D01*
X532351D01*
Y734579D01*
X534467D01*
X521771Y736695D02*
Y738811D01*
X523887D01*
X519655D01*
X521771D01*
Y745159D01*
X519655Y747275D01*
X500611D02*
Y734579D01*
X494263D01*
X492147Y736695D01*
Y740927D01*
X494263Y743043D01*
X500611D01*
X485799Y738811D02*
X481567D01*
X479451Y740927D01*
Y747275D01*
X485799D01*
X487915Y745159D01*
X485799Y743043D01*
X479451D01*
X466755Y734579D02*
Y747275D01*
X473103D01*
X475219Y745159D01*
Y740927D01*
X473103Y738811D01*
X466755D01*
X462523Y747275D02*
X456176D01*
X454060Y745159D01*
X456176Y743043D01*
X460408D01*
X462523Y740927D01*
X460408Y738811D01*
X454060D01*
X447712Y736695D02*
Y738811D01*
X449828D01*
X445596D01*
X447712D01*
Y745159D01*
X445596Y747275D01*
X439248Y738811D02*
Y745159D01*
X437132Y747275D01*
X430784D01*
Y749390D01*
X432900Y751507D01*
X435016D01*
X430784Y747275D02*
Y738811D01*
X426552Y747275D02*
X422320D01*
X424436D01*
Y734579D01*
X426552D01*
X409624Y747275D02*
X413856D01*
X415972Y745159D01*
Y740927D01*
X413856Y738811D01*
X409624D01*
X407508Y740927D01*
Y743043D01*
X415972D01*
X403276Y738811D02*
X401160D01*
Y740927D01*
X403276D01*
Y738811D01*
Y745159D02*
X401160D01*
Y747275D01*
X403276D01*
Y745159D01*
X380000Y747275D02*
Y734579D01*
X373652D01*
X371536Y736695D01*
Y740927D01*
X373652Y743043D01*
X380000D01*
X375768D02*
X371536Y747275D01*
X367304Y734579D02*
X358840Y747275D01*
Y734579D02*
X367304Y747275D01*
X346144Y734579D02*
X350377Y736695D01*
X354608Y740927D01*
Y745159D01*
X352492Y747275D01*
X348260D01*
X346144Y745159D01*
Y743043D01*
X348260Y740927D01*
X354608D01*
X341913Y747275D02*
X337681D01*
X339797D01*
Y734579D01*
X341913Y736695D01*
X331333Y734579D02*
Y736695D01*
X327101Y740927D01*
X322869Y736695D01*
Y734579D01*
X327101Y740927D02*
Y747275D01*
X318637Y736695D02*
X316521Y734579D01*
X312289D01*
X310173Y736695D01*
Y738811D01*
X312289Y740927D01*
X314405D01*
X312289D01*
X310173Y743043D01*
Y745159D01*
X312289Y747275D01*
X316521D01*
X318637Y745159D01*
X305941D02*
X303825Y747275D01*
X299593D01*
X297477Y745159D01*
Y736695D01*
X299593Y734579D01*
X303825D01*
X305941Y736695D01*
Y738811D01*
X303825Y740927D01*
X297477D01*
X293245Y734579D02*
Y747275D01*
X286897D01*
X284781Y745159D01*
Y736695D01*
X286897Y734579D01*
X293245D01*
X280549Y736695D02*
X278433Y734579D01*
X274201D01*
X272085Y736695D01*
Y745159D01*
X274201Y747275D01*
X278433D01*
X280549Y745159D01*
Y736695D01*
X267853Y734579D02*
X259389D01*
X263621D01*
Y747275D01*
X589480Y762515D02*
Y749819D01*
X583132D01*
X581016Y751935D01*
Y756167D01*
X583132Y758283D01*
X589480D01*
X576785Y762515D02*
X572552D01*
X574669D01*
Y754051D01*
X576785D01*
X566205Y762515D02*
Y754051D01*
X559857D01*
X557741Y756167D01*
Y762515D01*
X540813D02*
X536581D01*
X538697D01*
Y749819D01*
X540813Y751935D01*
X517537Y762515D02*
Y749819D01*
X511189D01*
X509073Y751935D01*
Y756167D01*
X511189Y758283D01*
X517537D01*
X502725Y754051D02*
X498493D01*
X496377Y756167D01*
Y762515D01*
X502725D01*
X504841Y760399D01*
X502725Y758283D01*
X496377D01*
X483681Y749819D02*
Y762515D01*
X490029D01*
X492145Y760399D01*
Y756167D01*
X490029Y754051D01*
X483681D01*
X479449Y762515D02*
X473101D01*
X470985Y760399D01*
X473101Y758283D01*
X477333D01*
X479449Y756167D01*
X477333Y754051D01*
X470985D01*
X464637Y751935D02*
Y754051D01*
X466753D01*
X462522D01*
X464637D01*
Y760399D01*
X462522Y762515D01*
X456174Y754051D02*
Y760399D01*
X454058Y762515D01*
X447710D01*
Y764631D01*
X449826Y766747D01*
X451942D01*
X447710Y762515D02*
Y754051D01*
X443478Y762515D02*
X439246D01*
X441362D01*
Y749819D01*
X443478D01*
X426550Y762515D02*
X430782D01*
X432898Y760399D01*
Y756167D01*
X430782Y754051D01*
X426550D01*
X424434Y756167D01*
Y758283D01*
X432898D01*
X420202Y754051D02*
X418086D01*
Y756167D01*
X420202D01*
Y754051D01*
Y760399D02*
X418086D01*
Y762515D01*
X420202D01*
Y760399D01*
X396926Y762515D02*
Y749819D01*
X390578D01*
X388462Y751935D01*
Y756167D01*
X390578Y758283D01*
X396926D01*
X392694D02*
X388462Y762515D01*
X384230Y749819D02*
X375766Y762515D01*
Y749819D02*
X384230Y762515D01*
X363070Y749819D02*
X367302Y751935D01*
X371534Y756167D01*
Y760399D01*
X369418Y762515D01*
X365186D01*
X363070Y760399D01*
Y758283D01*
X365186Y756167D01*
X371534D01*
X358838Y762515D02*
X354606D01*
X356722D01*
Y749819D01*
X358838Y751935D01*
X348259Y749819D02*
Y751935D01*
X344026Y756167D01*
X339795Y751935D01*
Y749819D01*
X344026Y756167D02*
Y762515D01*
X335563Y751935D02*
X333447Y749819D01*
X329215D01*
X327099Y751935D01*
Y754051D01*
X329215Y756167D01*
X331331D01*
X329215D01*
X327099Y758283D01*
Y760399D01*
X329215Y762515D01*
X333447D01*
X335563Y760399D01*
X322867D02*
X320751Y762515D01*
X316519D01*
X314403Y760399D01*
Y751935D01*
X316519Y749819D01*
X320751D01*
X322867Y751935D01*
Y754051D01*
X320751Y756167D01*
X314403D01*
X310171Y749819D02*
Y762515D01*
X303823D01*
X301707Y760399D01*
Y751935D01*
X303823Y749819D01*
X310171D01*
X297475Y751935D02*
X295359Y749819D01*
X291127D01*
X289011Y751935D01*
Y760399D01*
X291127Y762515D01*
X295359D01*
X297475Y760399D01*
Y751935D01*
X284779Y749819D02*
X276315D01*
X280547D01*
Y762515D01*
X592655Y808235D02*
Y799771D01*
X588423Y795539D01*
X584191Y799771D01*
Y808235D01*
Y801887D01*
X592655D01*
X579959Y808235D02*
X575728D01*
X577844D01*
Y795539D01*
X579959D01*
X567264Y797655D02*
Y799771D01*
X569380D01*
X565148D01*
X567264D01*
Y806119D01*
X565148Y808235D01*
X546104D02*
X541872D01*
X543988D01*
Y795539D01*
X546104Y797655D01*
X522828Y808235D02*
Y795539D01*
X516480D01*
X514364Y797655D01*
Y801887D01*
X516480Y804003D01*
X522828D01*
X508016Y799771D02*
X503784D01*
X501668Y801887D01*
Y808235D01*
X508016D01*
X510132Y806119D01*
X508016Y804003D01*
X501668D01*
X488972Y795539D02*
Y808235D01*
X495320D01*
X497436Y806119D01*
Y801887D01*
X495320Y799771D01*
X488972D01*
X484740Y808235D02*
X478392D01*
X476276Y806119D01*
X478392Y804003D01*
X482624D01*
X484740Y801887D01*
X482624Y799771D01*
X476276D01*
X469928Y797655D02*
Y799771D01*
X472044D01*
X467812D01*
X469928D01*
Y806119D01*
X467812Y808235D01*
X461465Y799771D02*
Y806119D01*
X459348Y808235D01*
X453001D01*
Y810350D01*
X455117Y812467D01*
X457233D01*
X453001Y808235D02*
Y799771D01*
X448769Y808235D02*
X444537D01*
X446653D01*
Y795539D01*
X448769D01*
X431841Y808235D02*
X436073D01*
X438189Y806119D01*
Y801887D01*
X436073Y799771D01*
X431841D01*
X429725Y801887D01*
Y804003D01*
X438189D01*
X425493Y799771D02*
X423377D01*
Y801887D01*
X425493D01*
Y799771D01*
Y806119D02*
X423377D01*
Y808235D01*
X425493D01*
Y806119D01*
X395869Y795539D02*
X400101D01*
X402217Y797655D01*
Y806119D01*
X400101Y808235D01*
X395869D01*
X393753Y806119D01*
Y797655D01*
X395869Y795539D01*
X389521D02*
X381057Y808235D01*
Y795539D02*
X389521Y808235D01*
X368361Y795539D02*
X372593Y797655D01*
X376825Y801887D01*
Y806119D01*
X374709Y808235D01*
X370477D01*
X368361Y806119D01*
Y804003D01*
X370477Y801887D01*
X376825D01*
X364129Y797655D02*
X362013Y795539D01*
X357781D01*
X355665Y797655D01*
Y806119D01*
X357781Y808235D01*
X362013D01*
X364129Y806119D01*
Y797655D01*
X351433Y795539D02*
Y797655D01*
X347201Y801887D01*
X342970Y797655D01*
Y795539D01*
X347201Y801887D02*
Y808235D01*
X338738Y806119D02*
X336622Y808235D01*
X332390D01*
X330274Y806119D01*
Y797655D01*
X332390Y795539D01*
X336622D01*
X338738Y797655D01*
Y799771D01*
X336622Y801887D01*
X330274D01*
X326042Y797655D02*
X323926Y795539D01*
X319694D01*
X317578Y797655D01*
Y806119D01*
X319694Y808235D01*
X323926D01*
X326042Y806119D01*
Y797655D01*
X313346Y795539D02*
Y808235D01*
X306998D01*
X304882Y806119D01*
Y797655D01*
X306998Y795539D01*
X313346D01*
X300650Y797655D02*
X298534Y795539D01*
X294302D01*
X292186Y797655D01*
Y799771D01*
X294302Y801887D01*
X296418D01*
X294302D01*
X292186Y804003D01*
Y806119D01*
X294302Y808235D01*
X298534D01*
X300650Y806119D01*
X287954Y797655D02*
X285838Y795539D01*
X281606D01*
X279490Y797655D01*
Y806119D01*
X281606Y808235D01*
X285838D01*
X287954Y806119D01*
Y797655D01*
X275258Y808235D02*
Y795539D01*
X268910D01*
X266794Y797655D01*
Y801887D01*
X268910Y804003D01*
X275258D01*
X592655Y823475D02*
Y815011D01*
X588423Y810779D01*
X584191Y815011D01*
Y823475D01*
Y817127D01*
X592655D01*
X579959Y823475D02*
X575728D01*
X577844D01*
Y810779D01*
X579959D01*
X567264Y812895D02*
Y815011D01*
X569380D01*
X565148D01*
X567264D01*
Y821359D01*
X565148Y823475D01*
X537640D02*
X546104D01*
X537640Y815011D01*
Y812895D01*
X539756Y810779D01*
X543988D01*
X546104Y812895D01*
X520712Y823475D02*
Y810779D01*
X514364D01*
X512248Y812895D01*
Y817127D01*
X514364Y819243D01*
X520712D01*
X505900Y815011D02*
X501668D01*
X499552Y817127D01*
Y823475D01*
X505900D01*
X508016Y821359D01*
X505900Y819243D01*
X499552D01*
X486856Y810779D02*
Y823475D01*
X493204D01*
X495320Y821359D01*
Y817127D01*
X493204Y815011D01*
X486856D01*
X482624Y823475D02*
X476276D01*
X474160Y821359D01*
X476276Y819243D01*
X480508D01*
X482624Y817127D01*
X480508Y815011D01*
X474160D01*
X467812Y812895D02*
Y815011D01*
X469928D01*
X465696D01*
X467812D01*
Y821359D01*
X465696Y823475D01*
X459348Y815011D02*
Y821359D01*
X457233Y823475D01*
X450885D01*
Y825591D01*
X453001Y827707D01*
X455117D01*
X450885Y823475D02*
Y815011D01*
X446653Y823475D02*
X442421D01*
X444537D01*
Y810779D01*
X446653D01*
X429725Y823475D02*
X433957D01*
X436073Y821359D01*
Y817127D01*
X433957Y815011D01*
X429725D01*
X427609Y817127D01*
Y819243D01*
X436073D01*
X423377Y815011D02*
X421261D01*
Y817127D01*
X423377D01*
Y815011D01*
Y821359D02*
X421261D01*
Y823475D01*
X423377D01*
Y821359D01*
X393753Y810779D02*
X397985D01*
X400101Y812895D01*
Y821359D01*
X397985Y823475D01*
X393753D01*
X391637Y821359D01*
Y812895D01*
X393753Y810779D01*
X387405D02*
X378941Y823475D01*
Y810779D02*
X387405Y823475D01*
X374709Y821359D02*
X372593Y823475D01*
X368361D01*
X366245Y821359D01*
Y812895D01*
X368361Y810779D01*
X372593D01*
X374709Y812895D01*
Y815011D01*
X372593Y817127D01*
X366245D01*
X362013Y812895D02*
X359897Y810779D01*
X355666D01*
X353549Y812895D01*
Y821359D01*
X355666Y823475D01*
X359897D01*
X362013Y821359D01*
Y812895D01*
X349318Y810779D02*
Y812895D01*
X345085Y817127D01*
X340854Y812895D01*
Y810779D01*
X345085Y817127D02*
Y823475D01*
X328158Y810779D02*
X332390Y812895D01*
X336622Y817127D01*
Y821359D01*
X334506Y823475D01*
X330274D01*
X328158Y821359D01*
Y819243D01*
X330274Y817127D01*
X336622D01*
X323926Y812895D02*
X321810Y810779D01*
X317578D01*
X315462Y812895D01*
Y821359D01*
X317578Y823475D01*
X321810D01*
X323926Y821359D01*
Y812895D01*
X311230Y810779D02*
Y823475D01*
X304882D01*
X302766Y821359D01*
Y812895D01*
X304882Y810779D01*
X311230D01*
X298534Y812895D02*
X296418Y810779D01*
X292186D01*
X290070Y812895D01*
Y815011D01*
X292186Y817127D01*
X294302D01*
X292186D01*
X290070Y819243D01*
Y821359D01*
X292186Y823475D01*
X296418D01*
X298534Y821359D01*
X285838Y812895D02*
X283722Y810779D01*
X279490D01*
X277374Y812895D01*
Y821359D01*
X279490Y823475D01*
X283722D01*
X285838Y821359D01*
Y812895D01*
X273142Y823475D02*
Y810779D01*
X266794D01*
X264678Y812895D01*
Y817127D01*
X266794Y819243D01*
X273142D01*
X309880Y423799D02*
X318344D01*
X322576Y419567D01*
X318344Y415335D01*
X309880D01*
X316228D01*
Y423799D01*
X309880Y411103D02*
Y406871D01*
Y408987D01*
X322576D01*
Y411103D01*
X320460Y398407D02*
X318344D01*
Y400523D01*
Y396291D01*
Y398407D01*
X311996D01*
X309880Y396291D01*
Y368783D02*
Y377247D01*
X318344Y368783D01*
X320460D01*
X322576Y370900D01*
Y375131D01*
X320460Y377247D01*
X309880Y351856D02*
X322576D01*
Y345508D01*
X320460Y343392D01*
X316228D01*
X314112Y345508D01*
Y351856D01*
X318344Y337044D02*
Y332812D01*
X316228Y330696D01*
X309880D01*
Y337044D01*
X311996Y339160D01*
X314112Y337044D01*
Y330696D01*
X322576Y318000D02*
X309880D01*
Y324348D01*
X311996Y326464D01*
X316228D01*
X318344Y324348D01*
Y318000D01*
X309880Y313768D02*
Y307420D01*
X311996Y305304D01*
X314112Y307420D01*
Y311652D01*
X316228Y313768D01*
X318344Y311652D01*
Y305304D01*
X320460Y298956D02*
X318344D01*
Y301072D01*
Y296840D01*
Y298956D01*
X311996D01*
X309880Y296840D01*
X318344Y290492D02*
X311996D01*
X309880Y288376D01*
Y282028D01*
X307764D01*
X305648Y284144D01*
Y286260D01*
X309880Y282028D02*
X318344D01*
X309880Y277796D02*
Y273564D01*
Y275680D01*
X322576D01*
Y277796D01*
X309880Y260868D02*
Y265100D01*
X311996Y267216D01*
X316228D01*
X318344Y265100D01*
Y260868D01*
X316228Y258752D01*
X314112D01*
Y267216D01*
X318344Y254520D02*
Y252404D01*
X316228D01*
Y254520D01*
X318344D01*
X311996D02*
Y252404D01*
X309880D01*
Y254520D01*
X311996D01*
X322576Y224897D02*
Y229129D01*
X320460Y231245D01*
X311996D01*
X309880Y229129D01*
Y224897D01*
X311996Y222781D01*
X320460D01*
X322576Y224897D01*
Y218549D02*
X309880Y210085D01*
X322576D02*
X309880Y218549D01*
X311996Y205853D02*
X309880Y203737D01*
Y199505D01*
X311996Y197389D01*
X320460D01*
X322576Y199505D01*
Y203737D01*
X320460Y205853D01*
X318344D01*
X316228Y203737D01*
Y197389D01*
X320460Y193157D02*
X322576Y191041D01*
Y186809D01*
X320460Y184693D01*
X311996D01*
X309880Y186809D01*
Y191041D01*
X311996Y193157D01*
X320460D01*
X322576Y180461D02*
X320460D01*
X316228Y176229D01*
X320460Y171997D01*
X322576D01*
X316228Y176229D02*
X309880D01*
X322576Y159301D02*
X320460Y163533D01*
X316228Y167765D01*
X311996D01*
X309880Y165649D01*
Y161417D01*
X311996Y159301D01*
X314112D01*
X316228Y161417D01*
Y167765D01*
X320460Y155069D02*
X322576Y152953D01*
Y148721D01*
X320460Y146605D01*
X311996D01*
X309880Y148721D01*
Y152953D01*
X311996Y155069D01*
X320460D01*
X322576Y142374D02*
X309880D01*
Y136026D01*
X311996Y133910D01*
X320460D01*
X322576Y136026D01*
Y142374D01*
X320460Y129678D02*
X322576Y127562D01*
Y123330D01*
X320460Y121214D01*
X318344D01*
X316228Y123330D01*
Y125446D01*
Y123330D01*
X314112Y121214D01*
X311996D01*
X309880Y123330D01*
Y127562D01*
X311996Y129678D01*
X320460Y116982D02*
X322576Y114866D01*
Y110634D01*
X320460Y108518D01*
X311996D01*
X309880Y110634D01*
Y114866D01*
X311996Y116982D01*
X320460D01*
X309880Y104286D02*
X322576D01*
Y97938D01*
X320460Y95822D01*
X316228D01*
X314112Y97938D01*
Y104286D01*
X325120Y423799D02*
X333584D01*
X337816Y419567D01*
X333584Y415335D01*
X325120D01*
X331468D01*
Y423799D01*
X325120Y411103D02*
Y406871D01*
Y408987D01*
X337816D01*
Y411103D01*
X335700Y398407D02*
X333584D01*
Y400523D01*
Y396291D01*
Y398407D01*
X327236D01*
X325120Y396291D01*
Y377247D02*
Y373015D01*
Y375131D01*
X337816D01*
X335700Y377247D01*
X325120Y353972D02*
X337816D01*
Y347624D01*
X335700Y345508D01*
X331468D01*
X329352Y347624D01*
Y353972D01*
X333584Y339160D02*
Y334928D01*
X331468Y332812D01*
X325120D01*
Y339160D01*
X327236Y341276D01*
X329352Y339160D01*
Y332812D01*
X337816Y320116D02*
X325120D01*
Y326464D01*
X327236Y328580D01*
X331468D01*
X333584Y326464D01*
Y320116D01*
X325120Y315884D02*
Y309536D01*
X327236Y307420D01*
X329352Y309536D01*
Y313768D01*
X331468Y315884D01*
X333584Y313768D01*
Y307420D01*
X335700Y301072D02*
X333584D01*
Y303188D01*
Y298956D01*
Y301072D01*
X327236D01*
X325120Y298956D01*
X333584Y292608D02*
X327236D01*
X325120Y290492D01*
Y284144D01*
X323004D01*
X320888Y286260D01*
Y288376D01*
X325120Y284144D02*
X333584D01*
X325120Y279912D02*
Y275680D01*
Y277796D01*
X337816D01*
Y279912D01*
X325120Y262984D02*
Y267216D01*
X327236Y269332D01*
X331468D01*
X333584Y267216D01*
Y262984D01*
X331468Y260868D01*
X329352D01*
Y269332D01*
X333584Y256637D02*
Y254520D01*
X331468D01*
Y256637D01*
X333584D01*
X327236D02*
Y254520D01*
X325120D01*
Y256637D01*
X327236D01*
X337816Y227013D02*
Y231245D01*
X335700Y233361D01*
X327236D01*
X325120Y231245D01*
Y227013D01*
X327236Y224897D01*
X335700D01*
X337816Y227013D01*
Y220665D02*
X325120Y212201D01*
X337816D02*
X325120Y220665D01*
X337816Y199505D02*
X335700Y203737D01*
X331468Y207969D01*
X327236D01*
X325120Y205853D01*
Y201621D01*
X327236Y199505D01*
X329352D01*
X331468Y201621D01*
Y207969D01*
X335700Y195273D02*
X337816Y193157D01*
Y188925D01*
X335700Y186809D01*
X327236D01*
X325120Y188925D01*
Y193157D01*
X327236Y195273D01*
X335700D01*
X337816Y182577D02*
X335700D01*
X331468Y178345D01*
X335700Y174113D01*
X337816D01*
X331468Y178345D02*
X325120D01*
X327236Y169881D02*
X325120Y167765D01*
Y163533D01*
X327236Y161417D01*
X335700D01*
X337816Y163533D01*
Y167765D01*
X335700Y169881D01*
X333584D01*
X331468Y167765D01*
Y161417D01*
X335700Y157185D02*
X337816Y155069D01*
Y150837D01*
X335700Y148721D01*
X327236D01*
X325120Y150837D01*
Y155069D01*
X327236Y157185D01*
X335700D01*
X337816Y144489D02*
X325120D01*
Y138141D01*
X327236Y136025D01*
X335700D01*
X337816Y138141D01*
Y144489D01*
X335700Y131794D02*
X337816Y129678D01*
Y125446D01*
X335700Y123330D01*
X333584D01*
X331468Y125446D01*
Y127562D01*
Y125446D01*
X329352Y123330D01*
X327236D01*
X325120Y125446D01*
Y129678D01*
X327236Y131794D01*
X335700Y119098D02*
X337816Y116982D01*
Y112750D01*
X335700Y110634D01*
X327236D01*
X325120Y112750D01*
Y116982D01*
X327236Y119098D01*
X335700D01*
X325120Y106402D02*
X337816D01*
Y100054D01*
X335700Y97938D01*
X331468D01*
X329352Y100054D01*
Y106402D01*
X383536Y426974D02*
X370840D01*
Y420626D01*
X372956Y418510D01*
X381420D01*
X383536Y420626D01*
Y426974D01*
X370840Y407930D02*
Y412162D01*
X372956Y414278D01*
X377188D01*
X379304Y412162D01*
Y407930D01*
X377188Y405814D01*
X375072D01*
Y414278D01*
X370840Y399466D02*
X381420D01*
X377188D01*
Y401582D01*
Y397350D01*
Y399466D01*
X381420D01*
X383536Y397350D01*
X379304Y388886D02*
Y384654D01*
X377188Y382538D01*
X370840D01*
Y388886D01*
X372956Y391002D01*
X375072Y388886D01*
Y382538D01*
X379304Y378306D02*
X372956D01*
X370840Y376190D01*
Y369842D01*
X379304D01*
X370840Y365611D02*
Y361379D01*
Y363495D01*
X383536D01*
Y365611D01*
X381420Y352915D02*
X379304D01*
Y355031D01*
Y350799D01*
Y352915D01*
X372956D01*
X370840Y350799D01*
Y331755D02*
X383536D01*
Y325407D01*
X381420Y323291D01*
X377188D01*
X375072Y325407D01*
Y331755D01*
X379304Y316943D02*
Y312711D01*
X377188Y310595D01*
X370840D01*
Y316943D01*
X372956Y319059D01*
X375072Y316943D01*
Y310595D01*
X383536Y297899D02*
X370840D01*
Y304247D01*
X372956Y306363D01*
X377188D01*
X379304Y304247D01*
Y297899D01*
X370840Y293667D02*
Y287319D01*
X372956Y285203D01*
X375072Y287319D01*
Y291551D01*
X377188Y293667D01*
X379304Y291551D01*
Y285203D01*
X381420Y278855D02*
X379304D01*
Y280971D01*
Y276739D01*
Y278855D01*
X372956D01*
X370840Y276739D01*
X379304Y270391D02*
X372956D01*
X370840Y268275D01*
Y261927D01*
X368724D01*
X366608Y264043D01*
Y266159D01*
X370840Y261927D02*
X379304D01*
X370840Y257696D02*
Y253463D01*
Y255579D01*
X383536D01*
Y257696D01*
X370840Y240768D02*
Y245000D01*
X372956Y247116D01*
X377188D01*
X379304Y245000D01*
Y240768D01*
X377188Y238652D01*
X375072D01*
Y247116D01*
X379304Y234420D02*
Y232304D01*
X377188D01*
Y234420D01*
X379304D01*
X372956D02*
Y232304D01*
X370840D01*
Y234420D01*
X372956D01*
X383536Y204796D02*
Y209028D01*
X381420Y211144D01*
X372956D01*
X370840Y209028D01*
Y204796D01*
X372956Y202680D01*
X381420D01*
X383536Y204796D01*
Y198448D02*
X370840Y189984D01*
X383536D02*
X370840Y198448D01*
X372956Y185752D02*
X370840Y183636D01*
Y179404D01*
X372956Y177288D01*
X381420D01*
X383536Y179404D01*
Y183636D01*
X381420Y185752D01*
X379304D01*
X377188Y183636D01*
Y177288D01*
X383536Y164592D02*
X381420Y168824D01*
X377188Y173056D01*
X372956D01*
X370840Y170940D01*
Y166708D01*
X372956Y164592D01*
X375072D01*
X377188Y166708D01*
Y173056D01*
X383536Y160360D02*
X381420D01*
X377188Y156128D01*
X381420Y151896D01*
X383536D01*
X377188Y156128D02*
X370840D01*
Y141316D02*
X383536D01*
X377188Y147664D01*
Y139200D01*
X370840Y128621D02*
X383536D01*
X377188Y134969D01*
Y126505D01*
X383536Y122273D02*
X370840D01*
Y115925D01*
X372956Y113809D01*
X381420D01*
X383536Y115925D01*
Y122273D01*
X381420Y109577D02*
X383536Y107461D01*
Y103229D01*
X381420Y101113D01*
X372956D01*
X370840Y103229D01*
Y107461D01*
X372956Y109577D01*
X381420D01*
X383536Y96881D02*
Y88417D01*
Y92649D01*
X370840D01*
D83*
X533180Y656726D02*
X556167D01*
X533180Y688726D02*
X556167D01*
X552357Y654186D02*
X553627Y656726D01*
X552357Y654186D02*
X554897D01*
X553627Y656726D02*
X554897Y654186D01*
X553627Y644026D02*
Y656726D01*
X552357Y691265D02*
X553627Y688726D01*
X552357Y691265D02*
X554897D01*
X553627Y688726D02*
X554897Y691265D01*
X553627Y688726D02*
Y701425D01*
X480680Y688726D02*
Y711715D01*
X533180Y688726D02*
Y711715D01*
X530640Y710445D02*
X533180Y709175D01*
X530640Y707905D02*
Y710445D01*
Y707905D02*
X533180Y709175D01*
X520480D02*
X533180D01*
X480680D02*
X483220Y710445D01*
Y707905D02*
Y710445D01*
X480680Y709175D02*
X483220Y707905D01*
X480680Y709175D02*
X493380D01*
X540458Y619767D02*
Y648977D01*
X473402Y619767D02*
Y648977D01*
Y623577D02*
X540458D01*
X537918Y622307D02*
X540458Y623577D01*
X537918Y624847D02*
X540458Y623577D01*
X537918Y622307D02*
Y624847D01*
X473402Y623577D02*
X475942Y622307D01*
X473402Y623577D02*
X475942Y624847D01*
Y622307D02*
Y624847D01*
X451470Y648977D02*
X473402D01*
X451470Y696475D02*
X473402D01*
X455280Y648977D02*
Y696475D01*
Y648977D02*
X456550Y651517D01*
X454010D02*
X455280Y648977D01*
X454010Y651517D02*
X456550D01*
X455280Y696475D02*
X456550Y693935D01*
X454010D02*
X455280Y696475D01*
X454010Y693935D02*
X456550D01*
X543306Y559308D02*
X545846D01*
X544576Y561848D02*
X545846Y559308D01*
X543306D02*
X544576Y561848D01*
X543306Y598424D02*
X545846D01*
X544576Y595884D02*
X545846Y598424D01*
X543306D02*
X544576Y595884D01*
Y549148D02*
Y561848D01*
Y595884D02*
Y608584D01*
X540766Y561848D02*
X646176D01*
X540766Y595884D02*
X646176D01*
X568706Y576326D02*
X571246D01*
X569976Y578866D02*
X571246Y576326D01*
X568706D02*
X569976Y578866D01*
X568706Y598424D02*
X571246D01*
X569976Y595884D02*
X571246Y598424D01*
X568706D02*
X569976Y595884D01*
Y566166D02*
Y578866D01*
Y595884D02*
Y608584D01*
X566166Y578866D02*
X677926D01*
X566166Y595884D02*
X646176D01*
X594106Y581406D02*
X596646D01*
X595376Y578866D02*
X596646Y581406D01*
X594106D02*
X595376Y578866D01*
X594106Y652526D02*
X596646D01*
X595376Y655066D02*
X596646Y652526D01*
X594106D02*
X595376Y655066D01*
Y578866D02*
Y655066D01*
X591566Y578866D02*
X677926D01*
X591566Y655066D02*
X766826D01*
X619506Y576326D02*
X622046D01*
X620776Y578866D02*
X622046Y576326D01*
X619506D02*
X620776Y578866D01*
X619506Y581406D02*
X622046D01*
X620776Y578866D02*
X622046Y581406D01*
X619506D02*
X620776Y578866D01*
Y566166D02*
Y578866D01*
Y591566D01*
X616966Y578866D02*
X699676D01*
X616966D02*
X677926D01*
X733806Y561906D02*
X736346D01*
X735076Y559366D02*
X736346Y561906D01*
X733806D02*
X735076Y559366D01*
X733806Y595826D02*
X736346D01*
X735076Y598366D02*
X736346Y595826D01*
X733806D02*
X735076Y598366D01*
Y559366D02*
Y598366D01*
X652526Y559366D02*
X738886D01*
X652526Y598366D02*
X738886D01*
X707136Y696214D02*
Y698754D01*
Y696214D02*
X709676Y697484D01*
X707136Y698754D02*
X709676Y697484D01*
X648716Y696214D02*
Y698754D01*
X646176Y697484D02*
X648716Y696214D01*
X646176Y697484D02*
X648716Y698754D01*
X646176Y697484D02*
X709676D01*
Y595884D02*
Y701294D01*
X646176Y595884D02*
Y701294D01*
X697136Y670814D02*
Y673354D01*
Y670814D02*
X699676Y672084D01*
X697136Y673354D02*
X699676Y672084D01*
X658716Y670814D02*
Y673354D01*
X656176Y672084D02*
X658716Y670814D01*
X656176Y672084D02*
X658716Y673354D01*
X656176Y672084D02*
X699676D01*
Y578866D02*
Y675894D01*
X656176Y578866D02*
Y675894D01*
X667766Y620014D02*
Y622554D01*
X665226Y621284D02*
X667766Y620014D01*
X665226Y621284D02*
X667766Y622554D01*
X649986Y620014D02*
Y622554D01*
Y620014D02*
X652526Y621284D01*
X649986Y622554D02*
X652526Y621284D01*
X665226D02*
X677926D01*
X639826D02*
X652526D01*
X665226Y559366D02*
Y625094D01*
X652526Y559366D02*
Y625094D01*
X439420Y268351D02*
Y270891D01*
X436880Y269621D02*
X439420Y268351D01*
X436880Y269621D02*
X439420Y270891D01*
X576072Y268351D02*
Y270891D01*
Y268351D02*
X578612Y269621D01*
X576072Y270891D02*
X578612Y269621D01*
X436880D02*
X578612D01*
X436880Y265811D02*
Y295021D01*
X578612Y265811D02*
Y295021D01*
X602742Y307086D02*
X605282D01*
X602742D02*
X604012Y304546D01*
X605282Y307086D01*
X602742Y369062D02*
X605282D01*
X602742D02*
X604012Y371602D01*
X605282Y369062D01*
X604012Y304546D02*
Y371602D01*
X558546Y304546D02*
X607822D01*
X558546Y371602D02*
X607822D01*
X424180Y295021D02*
Y307721D01*
Y295021D02*
X425450Y297561D01*
X422910D02*
X425450D01*
X422910D02*
X424180Y295021D01*
Y368427D02*
Y381127D01*
X425450Y378587D01*
X422910D02*
X425450D01*
X422910D02*
X424180Y381127D01*
X421640D02*
X456946D01*
X421640Y295021D02*
X456946D01*
X520446Y406019D02*
X533146D01*
X530606Y407289D02*
X533146Y406019D01*
X530606Y404749D02*
Y407289D01*
Y404749D02*
X533146Y406019D01*
X558546D02*
X571246D01*
X558546D02*
X561086Y407289D01*
Y404749D02*
Y407289D01*
X558546Y406019D02*
X561086Y404749D01*
X533146Y381127D02*
Y408559D01*
X558546Y381127D02*
Y408559D01*
X606967Y675901D02*
Y674843D01*
X605909D01*
Y675901D01*
X606967D01*
X601677D02*
X599561D01*
X600619D01*
Y669553D01*
X601677Y670611D01*
X592155Y675901D02*
X596387D01*
X592155Y671669D01*
Y670611D01*
X593214Y669553D01*
X595330D01*
X596387Y670611D01*
X585807Y669553D02*
X590039D01*
Y672727D01*
X587924Y671669D01*
X586866D01*
X585807Y672727D01*
Y674843D01*
X586866Y675901D01*
X588982D01*
X590039Y674843D01*
X583692D02*
X582634Y675901D01*
X580518D01*
X579460Y674843D01*
Y670611D01*
X580518Y669553D01*
X582634D01*
X583692Y670611D01*
Y671669D01*
X582634Y672727D01*
X579460D01*
X577344Y670611D02*
X576286Y669553D01*
X574170D01*
X573112Y670611D01*
Y671669D01*
X574170Y672727D01*
X573112Y673785D01*
Y674843D01*
X574170Y675901D01*
X576286D01*
X577344Y674843D01*
Y673785D01*
X576286Y672727D01*
X577344Y671669D01*
Y670611D01*
X576286Y672727D02*
X574170D01*
X567822Y675901D02*
Y669553D01*
X570996Y672727D01*
X566764D01*
X564648Y670611D02*
X563590Y669553D01*
X561474D01*
X560416Y670611D01*
Y671669D01*
X561474Y672727D01*
X562532D01*
X561474D01*
X560416Y673785D01*
Y674843D01*
X561474Y675901D01*
X563590D01*
X564648Y674843D01*
X558300Y675901D02*
X556184D01*
X557242D01*
Y671669D01*
X558300D01*
X553010Y675901D02*
Y671669D01*
X549836D01*
X548778Y672727D01*
Y675901D01*
X546662D02*
X542430Y671669D01*
X540314Y670611D02*
X539256Y669553D01*
X537140D01*
X536082Y670611D01*
Y671669D01*
X537140Y672727D01*
X538198D01*
X537140D01*
X536082Y673785D01*
Y674843D01*
X537140Y675901D01*
X539256D01*
X540314Y674843D01*
X533966Y675901D02*
Y674843D01*
X532908D01*
Y675901D01*
X533966D01*
X524444D02*
X528676D01*
X524444Y671669D01*
Y670611D01*
X525502Y669553D01*
X527618D01*
X528676Y670611D01*
X522328Y675901D02*
Y671669D01*
X521270D01*
X520212Y672727D01*
Y675901D01*
Y672727D01*
X519154Y671669D01*
X518096Y672727D01*
Y675901D01*
X515980D02*
Y671669D01*
X514922D01*
X513864Y672727D01*
Y675901D01*
Y672727D01*
X512806Y671669D01*
X511748Y672727D01*
Y675901D01*
X533918Y715525D02*
Y714467D01*
X532860D01*
Y715525D01*
X533918D01*
X524396D02*
X528628D01*
X524396Y711293D01*
Y710235D01*
X525454Y709177D01*
X527570D01*
X528628Y710235D01*
X522280D02*
X521222Y709177D01*
X519106D01*
X518048Y710235D01*
Y714467D01*
X519106Y715525D01*
X521222D01*
X522280Y714467D01*
Y710235D01*
X511700Y709177D02*
X513816Y710235D01*
X515932Y712351D01*
Y714467D01*
X514874Y715525D01*
X512758D01*
X511700Y714467D01*
Y713409D01*
X512758Y712351D01*
X515932D01*
X505352Y709177D02*
X507468Y710235D01*
X509584Y712351D01*
Y714467D01*
X508526Y715525D01*
X506410D01*
X505352Y714467D01*
Y713409D01*
X506410Y712351D01*
X509584D01*
X503236Y714467D02*
X502178Y715525D01*
X500062D01*
X499004Y714467D01*
Y710235D01*
X500062Y709177D01*
X502178D01*
X503236Y710235D01*
Y711293D01*
X502178Y712351D01*
X499004D01*
X492656Y715525D02*
X496888D01*
X492656Y711293D01*
Y710235D01*
X493714Y709177D01*
X495830D01*
X496888Y710235D01*
X490540Y714467D02*
X489482Y715525D01*
X487366D01*
X486308Y714467D01*
Y710235D01*
X487366Y709177D01*
X489482D01*
X490540Y710235D01*
Y711293D01*
X489482Y712351D01*
X486308D01*
X484192Y715525D02*
X482076D01*
X483134D01*
Y711293D01*
X484192D01*
X478902Y715525D02*
Y711293D01*
X475728D01*
X474670Y712351D01*
Y715525D01*
X472554D02*
X468322Y711293D01*
X461974Y709177D02*
X466207D01*
Y712351D01*
X464090Y711293D01*
X463032D01*
X461974Y712351D01*
Y714467D01*
X463032Y715525D01*
X465149D01*
X466207Y714467D01*
X459859Y715525D02*
Y714467D01*
X458801D01*
Y715525D01*
X459859D01*
X450337D02*
X454569D01*
X450337Y711293D01*
Y710235D01*
X451395Y709177D01*
X453511D01*
X454569Y710235D01*
X443989Y709177D02*
X448221D01*
Y712351D01*
X446105Y711293D01*
X445047D01*
X443989Y712351D01*
Y714467D01*
X445047Y715525D01*
X447163D01*
X448221Y714467D01*
X441873Y715525D02*
Y711293D01*
X440815D01*
X439757Y712351D01*
Y715525D01*
Y712351D01*
X438699Y711293D01*
X437641Y712351D01*
Y715525D01*
X435525D02*
Y711293D01*
X434467D01*
X433409Y712351D01*
Y715525D01*
Y712351D01*
X432351Y711293D01*
X431293Y712351D01*
Y715525D01*
X530743Y613207D02*
X529685Y612149D01*
X527569D01*
X526511Y613207D01*
Y617439D01*
X527569Y618497D01*
X529685D01*
X530743Y617439D01*
Y613207D01*
X524395Y618497D02*
Y617439D01*
X523337D01*
Y618497D01*
X524395D01*
X514873D02*
X519105D01*
X514873Y614265D01*
Y613207D01*
X515931Y612149D01*
X518047D01*
X519105Y613207D01*
X508525Y612149D02*
X510641Y613207D01*
X512757Y615323D01*
Y617439D01*
X511699Y618497D01*
X509583D01*
X508525Y617439D01*
Y616381D01*
X509583Y615323D01*
X512757D01*
X503235Y618497D02*
Y612149D01*
X506409Y615323D01*
X502177D01*
X500061Y618497D02*
X497945D01*
X499003D01*
Y614265D01*
X500061D01*
X494771Y618497D02*
Y614265D01*
X491597D01*
X490539Y615323D01*
Y618497D01*
X488423D02*
X484191Y614265D01*
X477843Y612149D02*
X479959Y613207D01*
X482075Y615323D01*
Y617439D01*
X481017Y618497D01*
X478901D01*
X477843Y617439D01*
Y616381D01*
X478901Y615323D01*
X482075D01*
X475727Y618497D02*
Y617439D01*
X474669D01*
Y618497D01*
X475727D01*
X470437Y612149D02*
X466205D01*
Y613207D01*
X470437Y617439D01*
Y618497D01*
X464089Y613207D02*
X463032Y612149D01*
X460915D01*
X459857Y613207D01*
Y617439D01*
X460915Y618497D01*
X463032D01*
X464089Y617439D01*
Y613207D01*
X453509Y612149D02*
X455625Y613207D01*
X457742Y615323D01*
Y617439D01*
X456684Y618497D01*
X454567D01*
X453509Y617439D01*
Y616381D01*
X454567Y615323D01*
X457742D01*
X451394Y618497D02*
Y614265D01*
X450336D01*
X449278Y615323D01*
Y618497D01*
Y615323D01*
X448220Y614265D01*
X447162Y615323D01*
Y618497D01*
X445046D02*
Y614265D01*
X443988D01*
X442930Y615323D01*
Y618497D01*
Y615323D01*
X441872Y614265D01*
X440814Y615323D01*
Y618497D01*
X450200Y670611D02*
X449142Y669553D01*
X447026D01*
X445968Y670611D01*
Y674843D01*
X447026Y675901D01*
X449142D01*
X450200Y674843D01*
Y670611D01*
X443852Y675901D02*
Y674843D01*
X442794D01*
Y675901D01*
X443852D01*
X438562D02*
X436446D01*
X437505D01*
Y669553D01*
X438562Y670611D01*
X433273D02*
X432215Y669553D01*
X430098D01*
X429040Y670611D01*
Y671669D01*
X430098Y672727D01*
X429040Y673785D01*
Y674843D01*
X430098Y675901D01*
X432215D01*
X433273Y674843D01*
Y673785D01*
X432215Y672727D01*
X433273Y671669D01*
Y670611D01*
X432215Y672727D02*
X430098D01*
X426925Y669553D02*
X422693D01*
Y670611D01*
X426925Y674843D01*
Y675901D01*
X420577D02*
X418461D01*
X419519D01*
Y671669D01*
X420577D01*
X415287Y675901D02*
Y671669D01*
X412113D01*
X411055Y672727D01*
Y675901D01*
X408939D02*
X404707Y671669D01*
X399417Y675901D02*
Y669553D01*
X402591Y672727D01*
X398359D01*
X396243Y675901D02*
Y674843D01*
X395185D01*
Y675901D01*
X396243D01*
X390953Y669553D02*
X386721D01*
Y670611D01*
X390953Y674843D01*
Y675901D01*
X380373Y669553D02*
X384605D01*
Y672727D01*
X382489Y671669D01*
X381431D01*
X380373Y672727D01*
Y674843D01*
X381431Y675901D01*
X383547D01*
X384605Y674843D01*
X378257Y675901D02*
Y671669D01*
X377199D01*
X376141Y672727D01*
Y675901D01*
Y672727D01*
X375083Y671669D01*
X374025Y672727D01*
Y675901D01*
X371909D02*
Y671669D01*
X370851D01*
X369793Y672727D01*
Y675901D01*
Y672727D01*
X368735Y671669D01*
X367677Y672727D01*
Y675901D01*
X491871Y589490D02*
X492929Y590548D01*
X495045D01*
X496103Y589490D01*
Y585258D01*
X495045Y584200D01*
X492929D01*
X491871Y585258D01*
Y589490D01*
X498219Y584200D02*
Y585258D01*
X499277D01*
Y584200D01*
X498219D01*
X503509D02*
X505625D01*
X504567D01*
Y590548D01*
X503509Y589490D01*
X508799D02*
X509857Y590548D01*
X511973D01*
X513031Y589490D01*
Y588432D01*
X511973Y587374D01*
X510915D01*
X511973D01*
X513031Y586316D01*
Y585258D01*
X511973Y584200D01*
X509857D01*
X508799Y585258D01*
X518321Y584200D02*
Y590548D01*
X515147Y587374D01*
X519379D01*
X521495Y584200D02*
X523611D01*
X522553D01*
Y588432D01*
X521495D01*
X526785Y584200D02*
Y588432D01*
X529959D01*
X531017Y587374D01*
Y584200D01*
X533133D02*
X537365Y588432D01*
X539481Y589490D02*
X540539Y590548D01*
X542655D01*
X543713Y589490D01*
Y588432D01*
X542655Y587374D01*
X541597D01*
X542655D01*
X543713Y586316D01*
Y585258D01*
X542655Y584200D01*
X540539D01*
X539481Y585258D01*
X545829Y584200D02*
Y585258D01*
X546886D01*
Y584200D01*
X545829D01*
X554292D02*
Y590548D01*
X551119Y587374D01*
X555350D01*
X557466Y589490D02*
X558524Y590548D01*
X560640D01*
X561698Y589490D01*
Y585258D01*
X560640Y584200D01*
X558524D01*
X557466Y585258D01*
Y589490D01*
X566988Y584200D02*
Y590548D01*
X563814Y587374D01*
X568046D01*
X570162Y584200D02*
Y588432D01*
X571220D01*
X572278Y587374D01*
Y584200D01*
Y587374D01*
X573336Y588432D01*
X574394Y587374D01*
Y584200D01*
X576510D02*
Y588432D01*
X577568D01*
X578626Y587374D01*
Y584200D01*
Y587374D01*
X579684Y588432D01*
X580742Y587374D01*
Y584200D01*
X517271Y589490D02*
X518329Y590548D01*
X520445D01*
X521503Y589490D01*
Y585258D01*
X520445Y584200D01*
X518329D01*
X517271Y585258D01*
Y589490D01*
X523619Y584200D02*
Y585258D01*
X524677D01*
Y584200D01*
X523619D01*
X528909Y589490D02*
X529967Y590548D01*
X532083D01*
X533141Y589490D01*
Y585258D01*
X532083Y584200D01*
X529967D01*
X528909Y585258D01*
Y589490D01*
X539489Y590548D02*
X537373Y589490D01*
X535257Y587374D01*
Y585258D01*
X536315Y584200D01*
X538431D01*
X539489Y585258D01*
Y586316D01*
X538431Y587374D01*
X535257D01*
X541605Y590548D02*
X545837D01*
Y589490D01*
X541605Y585258D01*
Y584200D01*
X547953D02*
X550069D01*
X549011D01*
Y588432D01*
X547953D01*
X553243Y584200D02*
Y588432D01*
X556417D01*
X557475Y587374D01*
Y584200D01*
X559591D02*
X563823Y588432D01*
X565939Y584200D02*
X568055D01*
X566997D01*
Y590548D01*
X565939Y589490D01*
X571228Y584200D02*
Y585258D01*
X572286D01*
Y584200D01*
X571228D01*
X576519Y590548D02*
X580751D01*
Y589490D01*
X576519Y585258D01*
Y584200D01*
X582866Y589490D02*
X583924Y590548D01*
X586040D01*
X587098Y589490D01*
Y585258D01*
X586040Y584200D01*
X583924D01*
X582866Y585258D01*
Y589490D01*
X593446Y584200D02*
X589214D01*
X593446Y588432D01*
Y589490D01*
X592388Y590548D01*
X590272D01*
X589214Y589490D01*
X595562Y584200D02*
Y588432D01*
X596620D01*
X597678Y587374D01*
Y584200D01*
Y587374D01*
X598736Y588432D01*
X599794Y587374D01*
Y584200D01*
X601910D02*
Y588432D01*
X602968D01*
X604026Y587374D01*
Y584200D01*
Y587374D01*
X605084Y588432D01*
X606142Y587374D01*
Y584200D01*
X552196Y619081D02*
X553254Y620139D01*
X555370D01*
X556428Y619081D01*
Y614849D01*
X555370Y613791D01*
X553254D01*
X552196Y614849D01*
Y619081D01*
X558544Y613791D02*
Y614849D01*
X559602D01*
Y613791D01*
X558544D01*
X563834Y619081D02*
X564892Y620139D01*
X567008D01*
X568066Y619081D01*
Y618023D01*
X567008Y616965D01*
X565950D01*
X567008D01*
X568066Y615907D01*
Y614849D01*
X567008Y613791D01*
X564892D01*
X563834Y614849D01*
X570182Y613791D02*
X572298D01*
X571240D01*
Y618023D01*
X570182D01*
X575472Y613791D02*
Y618023D01*
X578646D01*
X579704Y616965D01*
Y613791D01*
X581820D02*
X586052Y618023D01*
X588168Y620139D02*
X592400D01*
Y619081D01*
X588168Y614849D01*
Y613791D01*
X594516D02*
Y614849D01*
X595574D01*
Y613791D01*
X594516D01*
X604038Y620139D02*
X601922Y619081D01*
X599806Y616965D01*
Y614849D01*
X600864Y613791D01*
X602980D01*
X604038Y614849D01*
Y615907D01*
X602980Y616965D01*
X599806D01*
X610386Y613791D02*
X606153D01*
X610386Y618023D01*
Y619081D01*
X609328Y620139D01*
X607211D01*
X606153Y619081D01*
X612501Y613791D02*
Y618023D01*
X613559D01*
X614617Y616965D01*
Y613791D01*
Y616965D01*
X615676Y618023D01*
X616733Y616965D01*
Y613791D01*
X618849D02*
Y618023D01*
X619907D01*
X620965Y616965D01*
Y613791D01*
Y616965D01*
X622023Y618023D01*
X623081Y616965D01*
Y613791D01*
X593471Y580981D02*
X594529Y582039D01*
X596645D01*
X597703Y580981D01*
Y576749D01*
X596645Y575691D01*
X594529D01*
X593471Y576749D01*
Y580981D01*
X599819Y575691D02*
X601935D01*
X600877D01*
Y579923D01*
X599819D01*
X605109Y575691D02*
Y579923D01*
X608283D01*
X609341Y578865D01*
Y575691D01*
X611457D02*
X615689Y579923D01*
X617805Y580981D02*
X618863Y582039D01*
X620979D01*
X622037Y580981D01*
Y576749D01*
X620979Y575691D01*
X618863D01*
X617805Y576749D01*
Y580981D01*
X624153Y575691D02*
Y579923D01*
X625211D01*
X626269Y578865D01*
Y575691D01*
Y578865D01*
X627327Y579923D01*
X628385Y578865D01*
Y575691D01*
X630501D02*
Y579923D01*
X631559D01*
X632617Y578865D01*
Y575691D01*
Y578865D01*
X633675Y579923D01*
X634733Y578865D01*
Y575691D01*
X740156Y580981D02*
X741214Y582039D01*
X743330D01*
X744388Y580981D01*
Y576749D01*
X743330Y575691D01*
X741214D01*
X740156Y576749D01*
Y580981D01*
X746504Y575691D02*
Y576749D01*
X747562D01*
Y575691D01*
X746504D01*
X751794D02*
X753910D01*
X752852D01*
Y582039D01*
X751794Y580981D01*
X761316Y582039D02*
X757084D01*
Y578865D01*
X759200Y579923D01*
X760258D01*
X761316Y578865D01*
Y576749D01*
X760258Y575691D01*
X758142D01*
X757084Y576749D01*
X766606Y575691D02*
Y582039D01*
X763432Y578865D01*
X767664D01*
X769780Y575691D02*
X771896D01*
X770838D01*
Y579923D01*
X769780D01*
X775070Y575691D02*
Y579923D01*
X778244D01*
X779302Y578865D01*
Y575691D01*
X781418D02*
X785650Y579923D01*
X787766Y580981D02*
X788824Y582039D01*
X790940D01*
X791998Y580981D01*
Y579923D01*
X790940Y578865D01*
X789882D01*
X790940D01*
X791998Y577807D01*
Y576749D01*
X790940Y575691D01*
X788824D01*
X787766Y576749D01*
X794113Y575691D02*
Y576749D01*
X795172D01*
Y575691D01*
X794113D01*
X799404Y576749D02*
X800462Y575691D01*
X802578D01*
X803635Y576749D01*
Y580981D01*
X802578Y582039D01*
X800462D01*
X799404Y580981D01*
Y579923D01*
X800462Y578865D01*
X803635D01*
X805751Y575691D02*
Y579923D01*
X806809D01*
X807867Y578865D01*
Y575691D01*
Y578865D01*
X808925Y579923D01*
X809983Y578865D01*
Y575691D01*
X812099D02*
Y579923D01*
X813157D01*
X814215Y578865D01*
Y575691D01*
Y578865D01*
X815273Y579923D01*
X816331Y578865D01*
Y575691D01*
X657289Y707854D02*
X658346Y708912D01*
X660462D01*
X661520Y707854D01*
Y703622D01*
X660462Y702564D01*
X658346D01*
X657289Y703622D01*
Y707854D01*
X663636Y702564D02*
Y703622D01*
X664694D01*
Y702564D01*
X663636D01*
X673158D02*
X668926D01*
X673158Y706796D01*
Y707854D01*
X672100Y708912D01*
X669984D01*
X668926Y707854D01*
X679506Y708912D02*
X675274D01*
Y705738D01*
X677390Y706796D01*
X678448D01*
X679506Y705738D01*
Y703622D01*
X678448Y702564D01*
X676332D01*
X675274Y703622D01*
X681622Y702564D02*
X683738D01*
X682680D01*
Y706796D01*
X681622D01*
X686912Y702564D02*
Y706796D01*
X690086D01*
X691144Y705738D01*
Y702564D01*
X693260D02*
X697492Y706796D01*
X703840Y708912D02*
X701724Y707854D01*
X699608Y705738D01*
Y703622D01*
X700666Y702564D01*
X702782D01*
X703840Y703622D01*
Y704680D01*
X702782Y705738D01*
X699608D01*
X705956Y702564D02*
Y703622D01*
X707014D01*
Y702564D01*
X705956D01*
X711246Y707854D02*
X712304Y708912D01*
X714420D01*
X715478Y707854D01*
Y706796D01*
X714420Y705738D01*
X713362D01*
X714420D01*
X715478Y704680D01*
Y703622D01*
X714420Y702564D01*
X712304D01*
X711246Y703622D01*
X721826Y708912D02*
X717594D01*
Y705738D01*
X719710Y706796D01*
X720768D01*
X721826Y705738D01*
Y703622D01*
X720768Y702564D01*
X718652D01*
X717594Y703622D01*
X723942Y702564D02*
Y706796D01*
X725000D01*
X726058Y705738D01*
Y702564D01*
Y705738D01*
X727116Y706796D01*
X728174Y705738D01*
Y702564D01*
X730290D02*
Y706796D01*
X731348D01*
X732406Y705738D01*
Y702564D01*
Y705738D01*
X733464Y706796D01*
X734522Y705738D01*
Y702564D01*
X655701Y682454D02*
X656759Y683512D01*
X658875D01*
X659933Y682454D01*
Y678222D01*
X658875Y677164D01*
X656759D01*
X655701Y678222D01*
Y682454D01*
X662049Y677164D02*
Y678222D01*
X663107D01*
Y677164D01*
X662049D01*
X667339D02*
X669455D01*
X668397D01*
Y683512D01*
X667339Y682454D01*
X672629Y683512D02*
X676861D01*
Y682454D01*
X672629Y678222D01*
Y677164D01*
X678977D02*
X681093D01*
X680035D01*
Y683512D01*
X678977Y682454D01*
X684267Y677164D02*
X686383D01*
X685325D01*
Y681396D01*
X684267D01*
X689557Y677164D02*
Y681396D01*
X692731D01*
X693789Y680338D01*
Y677164D01*
X695905D02*
X700137Y681396D01*
X705427Y677164D02*
Y683512D01*
X702253Y680338D01*
X706485D01*
X708600Y677164D02*
Y678222D01*
X709659D01*
Y677164D01*
X708600D01*
X713891Y682454D02*
X714949Y683512D01*
X717065D01*
X718122Y682454D01*
Y681396D01*
X717065Y680338D01*
X716006D01*
X717065D01*
X718122Y679280D01*
Y678222D01*
X717065Y677164D01*
X714949D01*
X713891Y678222D01*
X724470Y683512D02*
X720238D01*
Y680338D01*
X722354Y681396D01*
X723412D01*
X724470Y680338D01*
Y678222D01*
X723412Y677164D01*
X721296D01*
X720238Y678222D01*
X726586Y677164D02*
Y681396D01*
X727644D01*
X728702Y680338D01*
Y677164D01*
Y680338D01*
X729760Y681396D01*
X730818Y680338D01*
Y677164D01*
X732934D02*
Y681396D01*
X733992D01*
X735050Y680338D01*
Y677164D01*
Y680338D01*
X736108Y681396D01*
X737166Y680338D01*
Y677164D01*
X638238Y631654D02*
X639296Y632712D01*
X641413D01*
X642470Y631654D01*
Y627422D01*
X641413Y626364D01*
X639296D01*
X638238Y627422D01*
Y631654D01*
X644586Y626364D02*
Y627422D01*
X645644D01*
Y626364D01*
X644586D01*
X649876Y631654D02*
X650934Y632712D01*
X653050D01*
X654108Y631654D01*
Y627422D01*
X653050Y626364D01*
X650934D01*
X649876Y627422D01*
Y631654D01*
X660456Y632712D02*
X656224D01*
Y629538D01*
X658340Y630596D01*
X659398D01*
X660456Y629538D01*
Y627422D01*
X659398Y626364D01*
X657282D01*
X656224Y627422D01*
X662572Y626364D02*
X664688D01*
X663630D01*
Y630596D01*
X662572D01*
X667862Y626364D02*
Y630596D01*
X671036D01*
X672094Y629538D01*
Y626364D01*
X674210D02*
X678442Y630596D01*
X680558Y626364D02*
X682674D01*
X681616D01*
Y632712D01*
X680558Y631654D01*
X685848Y626364D02*
Y627422D01*
X686906D01*
Y626364D01*
X685848D01*
X695370D02*
X691138D01*
X695370Y630596D01*
Y631654D01*
X694312Y632712D01*
X692196D01*
X691138Y631654D01*
X697486Y632712D02*
X701718D01*
Y631654D01*
X697486Y627422D01*
Y626364D01*
X703834D02*
Y630596D01*
X704892D01*
X705950Y629538D01*
Y626364D01*
Y629538D01*
X707008Y630596D01*
X708066Y629538D01*
Y626364D01*
X710182D02*
Y630596D01*
X711240D01*
X712298Y629538D01*
Y626364D01*
Y629538D01*
X713356Y630596D01*
X714414Y629538D01*
Y626364D01*
X509861Y264541D02*
X510919Y263483D01*
Y261367D01*
X509861Y260309D01*
X505629D01*
X504571Y261367D01*
Y263483D01*
X505629Y264541D01*
X509861D01*
X504571Y258193D02*
X505629D01*
Y257135D01*
X504571D01*
Y258193D01*
X510919Y248671D02*
Y252903D01*
X507745D01*
X508803Y250787D01*
Y249729D01*
X507745Y248671D01*
X505629D01*
X504571Y249729D01*
Y251845D01*
X505629Y252903D01*
X510919Y242323D02*
Y246555D01*
X507745D01*
X508803Y244439D01*
Y243381D01*
X507745Y242323D01*
X505629D01*
X504571Y243381D01*
Y245497D01*
X505629Y246555D01*
X509861Y240207D02*
X510919Y239149D01*
Y237033D01*
X509861Y235975D01*
X508803D01*
X507745Y237033D01*
X506687Y235975D01*
X505629D01*
X504571Y237033D01*
Y239149D01*
X505629Y240207D01*
X506687D01*
X507745Y239149D01*
X508803Y240207D01*
X509861D01*
X507745Y239149D02*
Y237033D01*
X504571Y233859D02*
Y231743D01*
Y232801D01*
X508803D01*
Y233859D01*
X504571Y228569D02*
X508803D01*
Y225395D01*
X507745Y224337D01*
X504571D01*
Y222221D02*
X508803Y217989D01*
X504571Y215873D02*
Y213757D01*
Y214815D01*
X510919D01*
X509861Y215873D01*
X504571Y207409D02*
X510919D01*
X507745Y210583D01*
Y206352D01*
X504571Y204235D02*
X505629D01*
Y203178D01*
X504571D01*
Y204235D01*
Y198946D02*
Y196830D01*
Y197888D01*
X510919D01*
X509861Y198946D01*
X510919Y193656D02*
Y189424D01*
X509861D01*
X505629Y193656D01*
X504571D01*
X509861Y187308D02*
X510919Y186250D01*
Y184134D01*
X509861Y183076D01*
X508803D01*
X507745Y184134D01*
Y185192D01*
Y184134D01*
X506687Y183076D01*
X505629D01*
X504571Y184134D01*
Y186250D01*
X505629Y187308D01*
X504571Y180960D02*
X508803D01*
Y179902D01*
X507745Y178844D01*
X504571D01*
X507745D01*
X508803Y177786D01*
X507745Y176728D01*
X504571D01*
Y174612D02*
X508803D01*
Y173554D01*
X507745Y172496D01*
X504571D01*
X507745D01*
X508803Y171438D01*
X507745Y170380D01*
X504571D01*
X614382Y361886D02*
X615440Y360829D01*
Y358713D01*
X614382Y357654D01*
X610150D01*
X609092Y358713D01*
Y360829D01*
X610150Y361886D01*
X614382D01*
X609092Y355539D02*
X610150D01*
Y354481D01*
X609092D01*
Y355539D01*
Y346017D02*
Y350249D01*
X613324Y346017D01*
X614382D01*
X615440Y347075D01*
Y349191D01*
X614382Y350249D01*
X615440Y339669D02*
X614382Y341785D01*
X612266Y343901D01*
X610150D01*
X609092Y342843D01*
Y340727D01*
X610150Y339669D01*
X611208D01*
X612266Y340727D01*
Y343901D01*
X609092Y334379D02*
X615440D01*
X612266Y337553D01*
Y333321D01*
X609092Y331205D02*
Y329089D01*
Y330147D01*
X613324D01*
Y331205D01*
X609092Y325915D02*
X613324D01*
Y322741D01*
X612266Y321683D01*
X609092D01*
Y319567D02*
X613324Y315335D01*
X615440Y308987D02*
X614382Y311103D01*
X612266Y313219D01*
X610150D01*
X609092Y312161D01*
Y310045D01*
X610150Y308987D01*
X611208D01*
X612266Y310045D01*
Y313219D01*
X609092Y306871D02*
X610150D01*
Y305813D01*
X609092D01*
Y306871D01*
X615440Y301581D02*
Y297349D01*
X614382D01*
X610150Y301581D01*
X609092D01*
X614382Y295233D02*
X615440Y294175D01*
Y292059D01*
X614382Y291001D01*
X610150D01*
X609092Y292059D01*
Y294175D01*
X610150Y295233D01*
X614382D01*
X615440Y284653D02*
X614382Y286769D01*
X612266Y288885D01*
X610150D01*
X609092Y287827D01*
Y285711D01*
X610150Y284653D01*
X611208D01*
X612266Y285711D01*
Y288885D01*
X609092Y282537D02*
X613324D01*
Y281479D01*
X612266Y280421D01*
X609092D01*
X612266D01*
X613324Y279363D01*
X612266Y278305D01*
X609092D01*
Y276189D02*
X613324D01*
Y275131D01*
X612266Y274073D01*
X609092D01*
X612266D01*
X613324Y273015D01*
X612266Y271957D01*
X609092D01*
M02*
