G04*
G04 #@! TF.GenerationSoftware,Altium Limited,Altium Designer,20.1.14 (287)*
G04*
G04 Layer_Color=32896*
%FSLAX44Y44*%
%MOMM*%
G71*
G04*
G04 #@! TF.SameCoordinates,D1A4AC06-9C69-4D29-80E8-20607C734ED5*
G04*
G04*
G04 #@! TF.FilePolarity,Positive*
G04*
G01*
G75*
%ADD10C,0.2000*%
%ADD16C,0.1270*%
D10*
X607710Y612496D02*
G03*
X607710Y612496I-1000J0D01*
G01*
D02*
G03*
X607710Y612496I-1000J0D01*
G01*
X629546Y587674D02*
G03*
X629546Y587674I-1000J0D01*
G01*
D02*
G03*
X629546Y587674I-1000J0D01*
G01*
X365532Y377220D02*
G03*
X365532Y377220I-1000J0D01*
G01*
D02*
G03*
X365532Y377220I-1000J0D01*
G01*
Y667034D02*
G03*
X365532Y667034I-1000J0D01*
G01*
D02*
G03*
X365532Y667034I-1000J0D01*
G01*
D16*
X741960Y619036D02*
Y719036D01*
X588710D02*
X741960D01*
X588710Y619036D02*
Y719036D01*
Y619036D02*
X741960D01*
Y719036D01*
X588710D02*
X741960D01*
X588710Y619036D02*
Y719036D01*
Y619036D02*
X741960D01*
X612046Y560424D02*
Y572924D01*
Y560424D02*
X632046D01*
Y572924D01*
X612046D02*
X632046D01*
X612046Y560424D02*
Y572924D01*
Y560424D02*
X632046D01*
Y572924D01*
X612046D02*
X632046D01*
X252032Y338220D02*
X277032D01*
X252032D02*
Y388220D01*
X277032D01*
Y403220D01*
Y338220D02*
Y388220D01*
Y323220D02*
Y338220D01*
Y323220D02*
X372032D01*
Y403220D01*
X277032D02*
X372032D01*
X252032Y338220D02*
X277032D01*
X252032D02*
Y388220D01*
X277032D01*
Y403220D01*
Y338220D02*
Y388220D01*
Y323220D02*
Y338220D01*
Y323220D02*
X372032D01*
Y403220D01*
X277032D02*
X372032D01*
X252032Y628034D02*
X277032D01*
X252032D02*
Y678034D01*
X277032D01*
Y693034D01*
Y628034D02*
Y678034D01*
Y613034D02*
Y628034D01*
Y613034D02*
X372032D01*
Y693034D01*
X277032D02*
X372032D01*
X252032Y628034D02*
X277032D01*
X252032D02*
Y678034D01*
X277032D01*
Y693034D01*
Y628034D02*
Y678034D01*
Y613034D02*
Y628034D01*
Y613034D02*
X372032D01*
Y693034D01*
X277032D02*
X372032D01*
M02*
