M48
;Layer_Color=9474304
;FILE_FORMAT=4:4
METRIC,LZ
;TYPE=PLATED
T1F00S00C0.2000
T2F00S00C0.6000
T3F00S00C1.0200
;TYPE=NON_PLATED
T4F00S00C0.6500
T5F00S00C1.4000
%
T01
X00355092Y00314706
X003556Y00322834
X00355346Y00332232
X00397256Y00319786
X00413512
Y00295656
X00397256Y00295402
X00456692Y00310642
X00590503Y003046
X0065906Y00325408
X00691388Y00307594
X00725678Y00328422
X00724198Y00386688
X00703834Y00376428
X00681194Y00378961
X00707898Y00411226
X00646938Y00443484
X00629158Y00431038
X00613918Y00447548
X00525199Y0047018
X00536086Y00500831
X00523918Y00512421
X00524002Y00518668
Y00525018
X00425867Y00525121
X00400955Y00526859
X00470662Y00656336
X00533446Y00648112
X0054737Y00688594
X00546862Y0072517
X00606806Y00720344
X00616712
X00626618
X00636778
X00646684
X0065659
X00686816Y00720598
X00696722
X00686008Y00679041
X00685246Y00658975
X00706697Y0062754
X00712978Y00627634
X00707967Y00617634
X0065659Y0061976
X00628719Y00592996
X00614377Y00602229
X00603743Y00640291
X00587411Y0064919
X0060706Y00694182
X00644876Y00540555
X00665226Y00544068
X00677672Y00543814
X00714248Y00514604
X00394981Y00532402
X00388615Y00547913
X0037338Y0054864
X00355092Y00548894
X00354838Y0053975
X0035433Y00558292
X00354838Y00565912
X00379832Y00567976
X0039602Y00589674
X00355346Y00601218
X003556Y00611632
X00355346Y00621792
X00327914Y00641858
Y00650748
Y0065913
X00330742Y0073389
X0036703Y00705866
X00369841Y00695414
X00386334Y00709676
X0033147Y00580136
X0032385
X0031623
X00327551Y00521011
X0033655Y00510286
X0033401Y00499618
X00354584Y00475742
X00355374Y00463348
X00355603Y00448747
X00362966Y00428752
X00370332Y00424434
X00368808Y00411226
X00382524Y00413258
X00326212Y00433575
X00388305Y00490521
T02
X00704596Y0043688
Y0044958
T03
X00605282Y00495554
Y00520954
T04
X0033528Y00478846
Y00536646
T05
X00297032Y0036322
X00342032
Y00653034
X00297032
M30
